<svg width="101" height="100" viewBox="0 0 101 100" fill="none" xmlns="http://www.w3.org/2000/svg">
<ellipse cx="50.9412" cy="50" rx="49.7507" ry="50" fill="#F5F7FB"/>
<path d="M51.2415 88.6758C51.2103 88.6758 51.1765 88.6732 51.144 88.668C50.7967 88.6146 50.5588 88.2904 50.6121 87.9428L52.7447 74.0222C52.7915 73.7136 53.0568 73.4831 53.3702 73.4818C71.7772 73.3594 72.759 55.1199 72.7915 54.3438C72.8032 54.0912 72.9619 53.8686 73.1973 53.7774L79.5796 51.2943C78.5978 44.9285 75.6433 33.2188 66.7772 22.8139C57.4821 11.9011 43.0451 11.6251 32.8592 16.1954C32.5393 16.3386 32.1622 16.1954 32.0191 15.8751C31.8748 15.5548 32.0191 15.1772 32.339 15.0339C42.9567 10.2683 58.0217 10.573 67.746 21.987C77.0555 32.9154 79.9918 45.2397 80.9138 51.612C80.9554 51.905 80.7902 52.1902 80.5133 52.2969L74.0282 54.8191C73.759 57.6967 71.43 74.2943 53.9203 74.7462L51.8696 88.1355C51.8214 88.4506 51.551 88.6758 51.2415 88.6758Z" fill="#1A1A1A"/>
<path d="M45.7716 59.7773H21.5753C21.2242 59.7773 20.9394 59.4921 20.9394 59.1406V37.8385C20.9394 25.7421 30.7677 15.901 42.8484 15.901H45.7716C57.8523 15.901 67.6806 25.7421 67.6806 37.8385C67.6806 49.9348 57.8523 59.7773 45.7716 59.7773ZM22.2112 58.5038H45.7716C57.1514 58.5038 66.4088 49.2343 66.4088 37.8398C66.4088 26.4452 57.1514 17.1757 45.7716 17.1757H42.8484C31.4687 17.1757 22.2112 26.4452 22.2112 37.8398V58.5038Z" fill="#1A1A1A"/>
<path d="M41.1077 38.4766C40.9412 38.4766 40.78 38.4115 40.6603 38.293L36.0687 33.7397C35.819 33.4923 35.8177 33.0886 36.0648 32.8386C36.3131 32.5886 36.715 32.5873 36.9646 32.8347L40.9828 36.8204L46.6903 27.4285C46.8723 27.1277 47.2637 27.0313 47.5641 27.2149C47.8645 27.3972 47.9594 27.7891 47.7774 28.0899L41.6512 38.172C41.5498 38.3386 41.3782 38.4493 41.1844 38.4727C41.1597 38.474 41.1337 38.4766 41.1077 38.4766Z" fill="#603FD5"/>
<path d="M41.1076 49.858C40.7565 49.858 40.4717 49.5728 40.4717 49.2213V42.8072C40.4717 42.4557 40.7565 42.1705 41.1076 42.1705C41.4587 42.1705 41.7435 42.4557 41.7435 42.8072V49.2213C41.7435 49.5728 41.4587 49.858 41.1076 49.858Z" fill="#603FD5"/>
<path d="M31.6444 33.9688H26.9344C26.5833 33.9688 26.2985 33.6836 26.2985 33.332C26.2985 32.9805 26.5833 32.6953 26.9344 32.6953H31.6444C31.9955 32.6953 32.2803 32.9805 32.2803 33.332C32.2803 33.6836 31.9955 33.9688 31.6444 33.9688Z" fill="#603FD5"/>
<path d="M56.443 33.9687H50.5717C50.2206 33.9687 49.9359 33.6836 49.9359 33.332C49.9359 32.9804 50.2206 32.6953 50.5717 32.6953H55.8071V28.5716C55.8071 28.22 56.0919 27.9349 56.443 27.9349C56.7941 27.9349 57.0789 28.22 57.0789 28.5716V33.332C57.0789 33.6836 56.7941 33.9687 56.443 33.9687Z" fill="#603FD5"/>
<path d="M39.5513 51.1731C39.5513 50.3124 40.2519 49.6132 41.1075 49.6132C41.9631 49.6132 42.6638 50.3124 42.6638 51.1731C42.6638 52.0337 41.9631 52.733 41.1075 52.733C40.2519 52.733 39.5513 52.0338 39.5513 51.1731Z" stroke="#603FD5" stroke-width="2.5"/>
<path d="M56.4444 24.4676C57.3023 24.4689 57.9995 25.1669 57.9982 26.0299C57.9968 26.893 57.2974 27.5887 56.4395 27.5874C55.5815 27.586 54.8843 26.888 54.8857 26.025C54.887 25.162 55.5864 24.4662 56.4444 24.4676Z" stroke="#603FD5" stroke-width="2.5"/>
<path d="M65.4225 88.6446C65.2391 88.6446 65.0545 88.5638 64.9296 88.4089C64.7073 88.1368 64.7489 87.7357 65.022 87.5131L68.9192 84.3373C69.1897 84.1146 69.5915 84.155 69.8139 84.4297C70.0363 84.7019 69.9946 85.1029 69.7216 85.3256L65.8243 88.5013C65.7047 88.5977 65.5629 88.6446 65.4225 88.6446Z" fill="#1A1A1A"/>
<path d="M50.5719 43.4441H31.6447C31.2936 43.4441 31.0088 43.1589 31.0088 42.8074V23.8556C31.0088 23.504 31.2936 23.2188 31.6447 23.2188H50.5719C50.923 23.2188 51.2077 23.504 51.2077 23.8556V42.8074C51.2077 43.1589 50.923 43.4441 50.5719 43.4441ZM32.2806 42.1707H49.936V24.4923H32.2806V42.1707Z" fill="#1A1A1A"/>
</svg>
