<svg width="41" height="45" viewBox="0 0 41 45" fill="none" xmlns="http://www.w3.org/2000/svg">
<g filter="url(#filter0_b)">
<path d="M18.2284 24.4038C17.8278 24.4038 17.4362 24.5231 17.1032 24.7466C16.7701 24.97 16.5105 25.2876 16.3572 25.6593C16.2039 26.0309 16.1638 26.4398 16.2419 26.8342C16.3201 27.2287 16.513 27.5911 16.7962 27.8755C17.0795 28.1599 17.4404 28.3536 17.8333 28.4321C18.2262 28.5105 18.6334 28.4703 19.0035 28.3163C19.3736 28.1624 19.6899 27.9018 19.9125 27.5673C20.135 27.2329 20.2538 26.8397 20.2538 26.4375C20.2538 25.8981 20.0404 25.3809 19.6606 24.9995C19.2807 24.6181 18.7656 24.4038 18.2284 24.4038ZM10.1269 24.4038C9.72628 24.4038 9.3347 24.5231 9.00162 24.7466C8.66855 24.97 8.40895 25.2876 8.25565 25.6593C8.10236 26.0309 8.06225 26.4398 8.1404 26.8342C8.21855 27.2287 8.41145 27.5911 8.6947 27.8755C8.97796 28.1599 9.33885 28.3536 9.73173 28.4321C10.1246 28.5105 10.5319 28.4703 10.9019 28.3163C11.272 28.1624 11.5884 27.9018 11.8109 27.5673C12.0335 27.2329 12.1523 26.8397 12.1523 26.4375C12.1523 25.8981 11.9389 25.3809 11.559 24.9995C11.1792 24.6181 10.664 24.4038 10.1269 24.4038ZM40.5076 6.10096C40.5076 4.48289 39.8675 2.93108 38.728 1.78693C37.5885 0.642778 36.043 0 34.4315 0H6.0761C4.4646 0 2.9191 0.642778 1.7796 1.78693C0.640104 2.93108 -6.10352e-05 4.48289 -6.10352e-05 6.10096V14.2356C0.00887216 15.7406 0.571525 17.1892 1.57974 18.3029C0.571525 19.4166 0.00887216 20.8652 -6.10352e-05 22.3702V30.5048C-6.10352e-05 32.1229 0.640104 33.6747 1.7796 34.8188C2.9191 35.963 4.4646 36.6058 6.0761 36.6058H18.2284V40.6731H2.02532C1.48816 40.6731 0.972994 40.8873 0.593161 41.2687C0.213327 41.6501 -6.10352e-05 42.1674 -6.10352e-05 42.7067C-6.10352e-05 43.2461 0.213327 43.7634 0.593161 44.1447C0.972994 44.5261 1.48816 44.7404 2.02532 44.7404H38.4823C39.0194 44.7404 39.5346 44.5261 39.9144 44.1447C40.2943 43.7634 40.5076 43.2461 40.5076 42.7067C40.5076 42.1674 40.2943 41.6501 39.9144 41.2687C39.5346 40.8873 39.0194 40.6731 38.4823 40.6731H22.2792V36.6058H34.4315C36.043 36.6058 37.5885 35.963 38.728 34.8188C39.8675 33.6747 40.5076 32.1229 40.5076 30.5048V22.3702C40.4987 20.8652 39.9361 19.4166 38.9278 18.3029C39.9361 17.1892 40.4987 15.7406 40.5076 14.2356V6.10096ZM36.4569 30.5048C36.4569 31.0442 36.2435 31.5614 35.8637 31.9428C35.4838 32.3242 34.9687 32.5385 34.4315 32.5385H6.0761C5.53893 32.5385 5.02377 32.3242 4.64393 31.9428C4.2641 31.5614 4.05071 31.0442 4.05071 30.5048V22.3702C4.05071 21.8308 4.2641 21.3136 4.64393 20.9322C5.02377 20.5508 5.53893 20.3365 6.0761 20.3365H34.4315C34.9687 20.3365 35.4838 20.5508 35.8637 20.9322C36.2435 21.3136 36.4569 21.8308 36.4569 22.3702V30.5048ZM36.4569 14.2356C36.4569 14.7749 36.2435 15.2922 35.8637 15.6736C35.4838 16.055 34.9687 16.2692 34.4315 16.2692H6.0761C5.53893 16.2692 5.02377 16.055 4.64393 15.6736C4.2641 15.2922 4.05071 14.7749 4.05071 14.2356V6.10096C4.05071 5.5616 4.2641 5.04433 4.64393 4.66295C5.02377 4.28157 5.53893 4.06731 6.0761 4.06731H34.4315C34.9687 4.06731 35.4838 4.28157 35.8637 4.66295C36.2435 5.04433 36.4569 5.5616 36.4569 6.10096V14.2356ZM18.2284 8.13461C17.8278 8.13461 17.4362 8.25389 17.1032 8.47735C16.7701 8.70081 16.5105 9.01842 16.3572 9.39002C16.2039 9.76162 16.1638 10.1705 16.2419 10.565C16.3201 10.9595 16.513 11.3219 16.7962 11.6063C17.0795 11.8907 17.4404 12.0844 17.8333 12.1628C18.2262 12.2413 18.6334 12.201 19.0035 12.0471C19.3736 11.8932 19.6899 11.6325 19.9125 11.2981C20.135 10.9637 20.2538 10.5705 20.2538 10.1683C20.2538 9.62891 20.0404 9.11164 19.6606 8.73026C19.2807 8.34887 18.7656 8.13461 18.2284 8.13461ZM10.1269 8.13461C9.72628 8.13461 9.3347 8.25389 9.00162 8.47735C8.66855 8.70081 8.40895 9.01842 8.25565 9.39002C8.10236 9.76162 8.06225 10.1705 8.1404 10.565C8.21855 10.9595 8.41145 11.3219 8.6947 11.6063C8.97796 11.8907 9.33885 12.0844 9.73173 12.1628C10.1246 12.2413 10.5319 12.201 10.9019 12.0471C11.272 11.8932 11.5884 11.6325 11.8109 11.2981C12.0335 10.9637 12.1523 10.5705 12.1523 10.1683C12.1523 9.62891 11.9389 9.11164 11.559 8.73026C11.1792 8.34887 10.664 8.13461 10.1269 8.13461Z" fill="#E9484C"/>
</g>
<defs>
<filter id="filter0_b" x="-15.0001" y="-15" width="70.5077" height="74.7404" filterUnits="userSpaceOnUse" color-interpolation-filters="sRGB">
<feFlood flood-opacity="0" result="BackgroundImageFix"/>
<feGaussianBlur in="BackgroundImage" stdDeviation="7.5"/>
<feComposite in2="SourceAlpha" operator="in" result="effect1_backgroundBlur"/>
<feBlend mode="normal" in="SourceGraphic" in2="effect1_backgroundBlur" result="shape"/>
</filter>
</defs>
</svg>
