<svg width="155" height="25" viewBox="0 0 155 25" fill="none" xmlns="http://www.w3.org/2000/svg">
<mask id="mask0" mask-type="alpha" maskUnits="userSpaceOnUse" x="0" y="0" width="16" height="25">
<path d="M0 0L8.57933 24.5571H15.3527L6.77335 0H0Z" fill="#C4C4C4"/>
</mask>
<g mask="url(#mask0)">
<path d="M10.4387 -7.04077L27.0105 16.6939L4.91472 31.5979L-11.6571 7.8632L10.4387 -7.04077Z" fill="url(#paint0_linear)"/>
</g>
<mask id="mask1" mask-type="alpha" maskUnits="userSpaceOnUse" x="8" y="7" width="13" height="18">
<path d="M8.57939 24.5573H15.3527C15.3527 17.5351 17.4654 11.5065 20.4905 8.87926C19.4531 7.9787 18.3059 7.47632 17.1019 7.47632C12.3958 7.47632 8.57939 15.1237 8.57939 24.5573Z" fill="#C4C4C4"/>
</mask>
<g mask="url(#mask1)">
<path d="M0.269165 18.5101L12.7974 1.87939L28.8013 13.5235L16.2731 30.1541L0.269165 18.5101Z" fill="url(#paint1_linear)"/>
</g>
<mask id="mask2" mask-type="alpha" maskUnits="userSpaceOnUse" x="17" y="7" width="16" height="18">
<path d="M17.1026 7.47632C18.3066 7.47632 19.45 7.97498 20.4874 8.87926C23.5087 11.5028 25.6251 17.5351 25.6251 24.5536H32.3985C32.3985 15.12 28.5821 7.47632 23.8759 7.47632H17.1026Z" fill="#C4C4C4"/>
</mask>
<g mask="url(#mask2)">
<path d="M28.7746 1.08301L39.7922 20.5084L20.7291 30.9505L9.71153 11.5288L28.7746 1.08301Z" fill="url(#paint2_linear)"/>
</g>
<path d="M25.6243 24.5571L34.2074 0H40.9808L32.4015 24.5571H25.6243Z" fill="#F7C654"/>
<path d="M83.8813 7.07812C81.2121 7.07812 79.1449 7.93031 77.4449 9.66818C75.745 11.3726 74.878 13.4826 74.878 16.0391C74.878 18.6292 75.745 20.7764 77.479 22.477C79.2131 24.1479 81.4544 25.0001 84.2637 25.0001C87.6258 25.0001 90.1436 23.4595 91.6467 20.8545L88.4322 19.3176C87.5387 20.7838 86.2742 21.6286 84.2978 21.6286C81.4204 21.6286 79.0465 20.1586 78.7966 17.6095H92.3433C92.7598 15.7861 92.3509 11.9233 90.2723 9.70539C88.6405 7.9638 86.4105 7.07812 83.8813 7.07812ZM78.7625 14.6064C79.1184 11.9308 81.072 10.4162 83.8473 10.4162C86.3082 10.4162 88.6973 11.8266 89.0986 14.6064H78.7625Z" fill="white"/>
<path d="M120.361 7.07812C117.832 7.07812 115.647 7.93031 113.879 9.66818C112.111 11.406 111.21 13.5198 111.21 16.0391C111.21 18.5622 112.111 20.6722 113.879 22.41C115.647 24.1479 117.832 25.0001 120.361 25.0001C122.924 25.0001 125.075 24.1479 126.843 22.41C128.611 20.6722 129.512 18.5585 129.512 16.0391C129.512 13.5198 128.611 11.406 126.843 9.66818C125.075 7.93031 122.924 7.07812 120.361 7.07812ZM124.208 19.8907C123.167 20.9141 121.883 21.4239 120.361 21.4239C118.835 21.4239 117.552 20.9141 116.514 19.8907C115.473 18.8673 114.955 17.5723 114.955 16.0391C114.955 14.5059 115.473 13.2109 116.514 12.1875C117.556 11.1642 118.835 10.6543 120.361 10.6543C121.887 10.6543 123.17 11.1642 124.208 12.1875C125.249 13.2109 125.768 14.5059 125.768 16.0391C125.768 17.5723 125.249 18.8673 124.208 19.8907Z" fill="white"/>
<path d="M100.359 24.5571C99.9688 23.4817 99.7681 22.0601 99.7681 19.9985V0H96.0236V19.4068C96.0236 21.1744 96.3114 23.4742 97.2087 24.5571H100.359Z" fill="white"/>
<path d="M108.434 24.5571C108.044 23.4817 107.844 22.0601 107.844 19.9985V0H104.099V19.4068C104.099 21.1744 104.387 23.4742 105.284 24.5571H108.434Z" fill="white"/>
<path d="M70.35 7.521L67.4952 19.299C67.4952 19.299 66.4351 12.4294 63.1942 7.521H60.4985C57.2576 12.4294 56.1975 19.299 56.1975 19.299L53.3427 7.521H49.39L54.4899 24.5573H58.3101C58.3101 24.5573 59.5823 16.4708 61.8464 11.8005C64.1104 16.4708 65.3826 24.5573 65.3826 24.5573H69.2028L74.3027 7.521H70.35Z" fill="white"/>
<path d="M134.04 7.521L136.894 19.299C136.894 19.299 137.954 12.4294 141.195 7.521H143.891C147.132 12.4294 148.192 19.299 148.192 19.299L151.047 7.521H154.999L149.9 24.5573H146.223C146.223 24.5573 144.803 16.4708 142.543 11.8005C140.279 16.4708 138.863 24.5573 138.863 24.5573H135.187L130.087 7.521H134.04Z" fill="white"/>
<defs>
<linearGradient id="paint0_linear" x1="5.2878" y1="8.87175" x2="10.8937" y2="17.1825" gradientUnits="userSpaceOnUse">
<stop stop-color="#9274FF"/>
<stop offset="0.8188" stop-color="#6A46F0"/>
<stop offset="1" stop-color="#6A46F0"/>
</linearGradient>
<linearGradient id="paint1_linear" x1="7.26253" y1="25.6682" x2="19.4494" y2="8.91871" gradientUnits="userSpaceOnUse">
<stop stop-color="#9274FF"/>
<stop offset="1" stop-color="#FF9354"/>
</linearGradient>
<linearGradient id="paint2_linear" x1="21.605" y1="10.4681" x2="29.5965" y2="25.0528" gradientUnits="userSpaceOnUse">
<stop stop-color="#F7C654"/>
<stop offset="0.7145" stop-color="#FF7B2E"/>
<stop offset="1" stop-color="#FF7B2E"/>
</linearGradient>
</defs>
</svg>
