<svg width="100" height="100" viewBox="0 0 100 100" fill="none" xmlns="http://www.w3.org/2000/svg">
<g clip-path="url(#clip0)">
<ellipse cx="49.7368" cy="50" rx="49.8333" ry="50" fill="#F5F7FB"/>
<path d="M53.8422 27.8534L53.8422 27.8536C53.9263 28.2372 54.2656 28.5102 54.6589 28.5102H57.3078H57.8078V29.0102V30.1825V30.1831C57.8054 32.2235 56.1521 33.8768 54.1117 33.8792H54.1111H46.0041H46.0035C43.9627 33.8768 42.3094 32.2235 42.307 30.1831V30.1825V29.0102V28.5102H42.807H45.4567C45.8489 28.5102 46.1885 28.2375 46.273 27.8534L53.8422 27.8534ZM53.8422 27.8534C53.4612 26.1193 51.863 24.8819 50.0578 24.8819C48.2527 24.8819 46.654 26.1192 46.273 27.8533L53.8422 27.8534ZM55.1675 26.5402L55.299 26.8384H55.6249L64.2123 26.8383C64.2125 26.8383 64.2126 26.8384 64.2127 26.8384C67.1765 26.842 69.5784 29.244 69.5819 32.2079V70.2781C69.5784 73.242 67.1763 75.6442 64.2123 75.6476H35.9024C32.9386 75.6442 30.5369 73.2422 30.5333 70.2784V32.2076C30.5369 29.2439 32.9384 26.842 35.902 26.8384C35.9022 26.8384 35.9023 26.8383 35.9024 26.8383L44.4903 26.8384H44.8161L44.9477 26.5402C45.8409 24.5163 47.8449 23.21 50.0578 23.21C52.2703 23.21 54.2743 24.5163 55.1675 26.5402ZM67.91 70.2791V70.2787V32.2073V32.2067C67.9076 30.1659 66.2543 28.5126 64.2135 28.5102H64.2129H59.9797H59.4797V29.0102V30.1819C59.4762 33.1459 57.0745 35.5476 54.1105 35.551H46.0046C43.0406 35.5476 40.6386 33.1459 40.6351 30.1819V29.0102V28.5102H40.1351L35.9019 28.5102L35.9013 28.5102C33.8608 28.5126 32.2076 30.166 32.2052 32.2067V32.2073L32.2052 70.2787L32.2052 70.2792C32.2076 72.3199 33.8608 73.9738 35.9014 73.9757H35.9019H64.2129H64.2134C66.2543 73.9738 67.9081 72.32 67.91 70.2791Z" fill="black" stroke="black"/>
<path d="M56.6695 47.3936L47.8991 55.9569L43.4454 51.6097C42.9214 51.097 42.0823 51.1033 41.565 51.6226C41.0482 52.1424 41.0461 52.9815 41.5609 53.5034L41.5788 53.5209L46.9651 58.7804C47.4845 59.2872 48.3132 59.2872 48.8321 58.7804L58.5356 49.306C59.0604 48.79 59.0688 47.9471 58.5553 47.4207C58.0409 46.8943 57.1984 46.8826 56.6695 47.3944V47.3936Z" fill="#FF7F34"/>
<path d="M82.9989 67.5821C82.8362 67.5821 82.6734 67.5196 82.5484 67.3959C82.2997 67.1472 82.2997 66.7435 82.5484 66.4948L85.8674 63.1758C86.1161 62.9271 86.5198 62.9271 86.7685 63.1758C87.0172 63.4245 87.0172 63.8282 86.7685 64.0769L83.4495 67.3959C83.3245 67.5196 83.1617 67.5821 82.9989 67.5821Z" fill="#1A1A1A"/>
<path d="M15.5128 48.7214C15.2966 48.7214 15.0857 48.6107 14.9659 48.4128L11.0909 41.9649C10.9099 41.6641 11.0076 41.2722 11.3096 41.0912C11.6091 40.9102 12.001 41.0066 12.1833 41.3099L16.0583 47.7579C16.2393 48.0586 16.1417 48.4506 15.8396 48.6316C15.738 48.6915 15.6247 48.7214 15.5128 48.7214Z" fill="#1A1A1A"/>
</g>
<defs>
<clipPath id="clip0">
<rect width="100" height="100" fill="white"/>
</clipPath>
</defs>
</svg>
