<svg width="66" height="45" viewBox="0 0 66 45" fill="none" xmlns="http://www.w3.org/2000/svg">
<path d="M63.0885 39.4838H2.74534C1.2271 39.4838 0.000976562 40.716 0.000976562 42.2419C0.000976562 43.7636 1.23121 45 2.74534 45H63.0926C64.6068 45 65.837 43.7678 65.837 42.2419C65.8329 40.716 64.6068 39.4838 63.0885 39.4838Z" fill="#E2E2E2"/>
<path d="M54.8589 6.4032H50.7444V11.9153H54.8589V39.4841H60.3435V11.9153C60.3476 8.87599 57.8872 6.4032 54.8589 6.4032Z" fill="#E2E2E2"/>
<path d="M15.089 6.4032H10.9746C7.95052 6.4032 5.49011 8.87599 5.49011 11.9153V39.4841H10.9746V11.9153H15.089V6.4032Z" fill="#E2E2E2"/>
<path d="M42.955 13.4091H22.8825C21.9746 13.4091 21.2381 12.668 21.2381 11.7543C21.2381 10.8406 21.9746 10.0995 22.8825 10.0995H42.955C43.8629 10.0995 44.5994 10.8406 44.5994 11.7543C44.5994 12.668 43.8629 13.4091 42.955 13.4091Z" fill="#603FD5"/>
<path d="M32.9207 23.5088C32.0127 23.5088 31.2762 22.7677 31.2762 21.854V1.65479C31.2762 0.741107 32.0127 0 32.9207 0C33.8287 0 34.5652 0.741107 34.5652 1.65479V21.854C34.5652 22.7677 33.8287 23.5088 32.9207 23.5088Z" fill="#603FD5"/>
</svg>
