<svg width="101" height="106" viewBox="0 0 101 106" fill="none" xmlns="http://www.w3.org/2000/svg">
<ellipse cx="50.9412" cy="50" rx="49.7507" ry="50" fill="#F5F7FB"/>
<path d="M49.2477 65.4804H36.9755C36.6344 65.4804 36.3544 65.2121 36.3401 64.8723C35.9065 55.1015 43.9586 41.539 44.8466 40.0767C45.0914 38.203 43.012 35.9022 40.232 34.9999C39.0172 34.608 34.8779 33.6835 32.6422 38.3437C32.4898 38.6614 32.1122 38.7955 31.7932 38.6418C31.4755 38.4895 31.3427 38.1093 31.495 37.7929C33.6266 33.3489 37.6083 32.8098 40.624 33.7877C44.0927 34.9114 46.5419 37.884 46.0823 40.4127C46.068 40.4908 46.0393 40.565 45.9977 40.6327C45.9117 40.7733 37.5367 54.5012 37.5979 64.2056H49.249C49.6005 64.2056 49.8857 64.4908 49.8857 64.8423C49.8857 65.1939 49.6005 65.4804 49.2477 65.4804Z" fill="#603FD5"/>
<path d="M49.2434 90.4999C49.1497 90.4999 49.0559 90.4791 48.9661 90.4361C19.7174 76.2616 21.5078 41.3671 29.5065 22.7017C29.6445 22.3775 30.0195 22.2265 30.3424 22.3671C30.6653 22.5051 30.8151 22.8788 30.677 23.203C22.8632 41.4361 21.0716 75.5012 49.5234 89.2916C49.8398 89.4439 49.9713 89.8254 49.8177 90.1418C49.7083 90.3684 49.4804 90.4999 49.2434 90.4999Z" fill="#1A1A1A"/>
<path d="M60.6097 79.8945C60.2854 79.8945 60.0094 79.6484 59.9768 79.3203C59.943 78.9713 60.1982 78.6588 60.5471 78.625C60.8349 78.5963 67.6084 77.8307 68.693 70.2435C68.7425 69.8958 69.0654 69.6575 69.4131 69.7031C69.7607 69.7526 70.0029 70.0755 69.9534 70.4231C68.7242 79.0182 60.7503 79.8828 60.6695 79.8906C60.6513 79.8932 60.6305 79.8945 60.6097 79.8945Z" fill="#603FD5"/>
<path d="M18.8579 84.3945C18.6951 84.3945 18.5324 84.332 18.4074 84.2083L14.6287 80.4309C14.38 80.1822 14.38 79.7799 14.6287 79.5312C14.8774 79.2825 15.2798 79.2825 15.5285 79.5312L19.3071 83.3085C19.5558 83.5572 19.5558 83.9596 19.3071 84.2083C19.1834 84.332 19.0206 84.3945 18.8579 84.3945Z" fill="#1A1A1A"/>
<path d="M16.9698 78.3554C16.807 78.3554 16.6443 78.2929 16.5193 78.1692L14.6299 76.2799C14.3812 76.0312 14.3812 75.6288 14.6299 75.3801C14.8786 75.1314 15.281 75.1314 15.5297 75.3801L17.419 77.2694C17.6677 77.5181 17.6677 77.9205 17.419 78.1692C17.2953 78.2929 17.1325 78.3554 16.9698 78.3554Z" fill="#1A1A1A"/>
<path d="M90.0147 59.2006C89.8897 59.2006 89.7621 59.1629 89.6514 59.086C86.404 56.8204 80.5615 56.0066 80.5016 55.9988C80.2048 55.9584 79.9769 55.7162 79.9522 55.4168C79.5798 50.6264 78.7412 42.5821 78.0798 41.3868C74.0628 34.1407 64.9222 32.0314 41.1892 29.7215C40.8389 29.6876 40.5824 29.3764 40.6175 29.0261C40.6514 28.6759 40.9626 28.422 41.3129 28.4545C65.5381 30.8113 74.9027 33.0261 79.1944 40.7709C80.1253 42.4519 80.973 52.2358 81.1826 54.8152C82.736 55.0717 87.4326 55.9858 90.3805 58.0418C90.6696 58.2436 90.7399 58.6394 90.5381 58.9285C90.4144 59.1056 90.2165 59.2006 90.0147 59.2006Z" fill="#1A1A1A"/>
<path d="M71.8373 25.0234C71.7644 25.0234 71.6901 25.0104 71.6172 24.9843C56.6224 19.4713 41.4401 19.4127 41.2513 19.4127C40.8998 19.4127 40.6146 19.1275 40.6146 18.7773C40.6146 18.4257 40.8998 18.1406 41.25 18.1406C41.4414 18.1406 56.8516 18.1992 72.056 23.7903C72.3868 23.9114 72.5547 24.2773 72.4336 24.6067C72.3399 24.8645 72.0964 25.0234 71.8373 25.0234Z" fill="#1A1A1A"/>
</svg>
