<svg width="102" height="100" viewBox="0 0 102 100" fill="none" xmlns="http://www.w3.org/2000/svg">
<g clip-path="url(#clip0)">
<circle cx="51.9434" cy="50" r="50" fill="#F5F7FB"/>
<ellipse cx="51.6801" cy="50" rx="49.8333" ry="50" fill="#F5F7FB"/>
<path d="M79.52 67.8412H24.3821V56.3113C24.3821 54.1264 26.1507 52.3542 28.334 52.3542H75.5694C77.7515 52.3542 79.5213 54.1251 79.5213 56.3113V67.8412H79.52Z" fill="#1A1A1A"/>
<path d="M79.5196 68.4779H24.3817C24.0306 68.4779 23.7458 68.1928 23.7458 67.8412V56.0274C23.7458 53.6511 25.6769 51.7175 28.0488 51.7175H75.8525C78.2257 51.7175 80.1555 53.6511 80.1555 56.0274V67.8412C80.1555 68.1941 79.8707 68.4779 79.5196 68.4779ZM25.0176 67.2045H78.8837V56.0274C78.8837 55.3634 78.6691 54.7488 78.3076 54.2488C77.7562 53.4884 76.8616 52.9923 75.8525 52.9923H28.0488C27.1009 52.9923 26.2543 53.4298 25.6977 54.1134C25.2725 54.6355 25.0176 55.3022 25.0176 56.0274V67.2045Z" fill="#1A1A1A"/>
<path d="M78.9422 76.4896H24.9591C23.5729 76.4896 22.3167 75.9271 21.4078 75.0169C20.4988 74.1067 19.937 72.8502 19.937 71.4609C19.937 70.0729 20.4988 68.8151 21.4078 67.9049C22.3167 66.9948 23.5716 66.4323 24.9591 66.4323H78.9422C80.2946 66.4323 81.5235 66.9674 82.426 67.8398C83.3739 68.7539 83.9643 70.039 83.9643 71.4609C83.9643 72.7981 83.4429 74.013 82.5937 74.914C81.6769 75.8854 80.3804 76.4896 78.9422 76.4896Z" fill="white"/>
<path d="M79.1057 77.1277H24.7936C21.765 77.1277 19.3007 74.6602 19.3007 71.6276V71.2982C19.3007 68.2657 21.765 65.7982 24.7936 65.7982H79.1057C82.1343 65.7982 84.5985 68.2657 84.5985 71.2982V71.6276C84.5985 74.6602 82.1356 77.1277 79.1057 77.1277ZM24.7936 67.0703C22.4659 67.0703 20.5725 68.9662 20.5725 71.2969V71.6263C20.5725 73.9571 22.4659 75.8529 24.7936 75.8529H79.1057C81.4334 75.8529 83.3268 73.9571 83.3268 71.6263V71.2969C83.3268 68.9662 81.4334 67.0703 79.1057 67.0703H24.7936Z" fill="#1A1A1A"/>
<path d="M76.7323 73.0613C75.8553 73.0613 75.137 72.3446 75.137 71.461C75.137 70.5786 75.8555 69.8621 76.7323 69.8621C77.6102 69.8621 78.3286 70.5796 78.3288 71.4605C78.3278 72.3458 77.6092 73.0613 76.7323 73.0613Z" stroke="#1A7248" stroke-width="2.5"/>
<path d="M71.3333 72.099H61.7676C61.4165 72.099 61.1317 71.8138 61.1317 71.4623C61.1317 71.1107 61.4165 70.8256 61.7676 70.8256H71.3333C71.6844 70.8256 71.9692 71.1107 71.9692 71.4623C71.9692 71.8138 71.6857 72.099 71.3333 72.099Z" fill="#1A1A1A"/>
<path d="M71.3335 17.1824H32.5663V62.8386H71.3335V17.1824Z" fill="white"/>
<path d="M71.3331 63.4753H32.5659C32.2148 63.4753 31.93 63.1902 31.93 62.8386V17.1824C31.93 16.8308 32.2148 16.5457 32.5659 16.5457H71.3331C71.6842 16.5457 71.969 16.8308 71.969 17.1824V62.8386C71.969 63.1902 71.6855 63.4753 71.3331 63.4753ZM33.2018 62.2019H70.6972V17.8191H33.2018V62.2019Z" fill="#1A1A1A"/>
<path d="M40.5908 31.7799C40.2397 31.7799 39.955 31.4947 39.955 31.1432V24.6901C39.955 24.3385 40.2397 24.0533 40.5908 24.0533C40.942 24.0533 41.2267 24.3385 41.2267 24.6901V31.1432C41.2267 31.4947 40.942 31.7799 40.5908 31.7799Z" fill="#1A1A1A"/>
<path d="M39.1864 28.6992C37.6922 28.6992 36.4764 27.4817 36.4764 25.9856C36.4764 24.4895 37.6922 23.2721 39.1864 23.2721C39.8782 23.2721 40.5336 23.5312 41.029 24.0013C41.1552 24.1224 41.228 24.289 41.228 24.4635V27.5078C41.228 27.6823 41.1565 27.8502 41.029 27.97C40.5323 28.4401 39.8782 28.6992 39.1864 28.6992ZM39.1864 24.5455C38.3932 24.5455 37.7482 25.1914 37.7482 25.9856C37.7482 26.7799 38.3932 27.4257 39.1864 27.4257C39.4647 27.4257 39.73 27.3476 39.9549 27.2018V24.7695C39.73 24.6237 39.4647 24.5455 39.1864 24.5455Z" fill="#1A1A1A"/>
<path d="M52.673 31.7801C51.3674 31.7801 50.305 30.6551 50.305 29.2736V25.8387C50.305 24.4572 51.3674 23.3335 52.673 23.3335C53.9786 23.3335 55.041 24.4572 55.041 25.8387V29.2736C55.041 30.6564 53.9786 31.7801 52.673 31.7801ZM52.673 24.6069C52.0683 24.6069 51.5768 25.1603 51.5768 25.8387V29.2736C51.5768 29.9533 52.0683 30.5067 52.673 30.5067C53.2777 30.5067 53.7692 29.9533 53.7692 29.2736V25.8387C53.7692 25.1603 53.2777 24.6069 52.673 24.6069Z" fill="#1A7248"/>
<path d="M47.263 31.7799C46.9119 31.7799 46.6271 31.4947 46.6271 31.1432V24.6901C46.6271 24.3385 46.9119 24.0533 47.263 24.0533C47.6141 24.0533 47.8989 24.3385 47.8989 24.6901V31.1432C47.8989 31.4947 47.6141 31.7799 47.263 31.7799Z" fill="#1A1A1A"/>
<path d="M45.8584 28.6992C44.3642 28.6992 43.1484 27.4817 43.1484 25.9856C43.1484 24.4895 44.3642 23.2721 45.8584 23.2721C46.5502 23.2721 47.2056 23.5312 47.701 24.0013C47.8272 24.1224 47.9 24.289 47.9 24.4635V27.5078C47.9 27.6823 47.8285 27.8502 47.701 27.97C47.2043 28.4401 46.5502 28.6992 45.8584 28.6992ZM45.8584 24.5455C45.0651 24.5455 44.4202 25.1914 44.4202 25.9856C44.4202 26.7799 45.0651 27.4257 45.8584 27.4257C46.1367 27.4257 46.4019 27.3476 46.6269 27.2018V24.7695C46.4019 24.6237 46.1367 24.5455 45.8584 24.5455Z" fill="#1A1A1A"/>
<path d="M40.5908 44.3502C40.2397 44.3502 39.955 44.0651 39.955 43.7135V37.2604C39.955 36.9088 40.2397 36.6237 40.5908 36.6237C40.942 36.6237 41.2267 36.9088 41.2267 37.2604V43.7135C41.2267 44.0664 40.942 44.3502 40.5908 44.3502Z" fill="#1A1A1A"/>
<path d="M39.1864 41.2695C37.6922 41.2695 36.4764 40.052 36.4764 38.556C36.4764 37.0599 37.6922 35.8424 39.1864 35.8424C39.8782 35.8424 40.5336 36.1015 41.029 36.5716C41.1552 36.6927 41.228 36.8593 41.228 37.0338V40.0781C41.228 40.2526 41.1565 40.4205 41.029 40.5403C40.5323 41.0104 39.8782 41.2695 39.1864 41.2695ZM39.1864 37.1158C38.3932 37.1158 37.7482 37.7617 37.7482 38.556C37.7482 39.3502 38.3932 39.9961 39.1864 39.9961C39.4647 39.9961 39.73 39.9179 39.9549 39.7721V37.3398C39.73 37.194 39.4647 37.1158 39.1864 37.1158Z" fill="#1A1A1A"/>
<path d="M65.5398 44.1901C65.1887 44.1901 64.9039 43.9049 64.9039 43.5533V36.7018C64.9039 36.3502 65.1887 36.0651 65.5398 36.0651C65.8909 36.0651 66.1757 36.3502 66.1757 36.7018V43.5533C66.1757 43.9049 65.8909 44.1901 65.5398 44.1901Z" fill="#1A1A1A"/>
<path d="M65.4138 31.9792C65.0627 31.9792 64.7779 31.6941 64.7779 31.3425V24.491C64.7779 24.1394 65.0627 23.8542 65.4138 23.8542C65.7649 23.8542 66.0497 24.1394 66.0497 24.491V31.3425C66.0497 31.6954 65.7649 31.9792 65.4138 31.9792Z" fill="#1A1A1A"/>
<path d="M59.8142 44.1901C59.4631 44.1901 59.1783 43.9049 59.1783 43.5533V36.7018C59.1783 36.3502 59.4631 36.0651 59.8142 36.0651C60.1653 36.0651 60.4501 36.3502 60.4501 36.7018V43.5533C60.4501 43.9049 60.1653 44.1901 59.8142 44.1901Z" fill="#1A1A1A"/>
<path d="M47.263 44.3502C46.9119 44.3502 46.6271 44.0651 46.6271 43.7135V37.2604C46.6271 36.9088 46.9119 36.6237 47.263 36.6237C47.6141 36.6237 47.8989 36.9088 47.8989 37.2604V43.7135C47.8989 44.0664 47.6141 44.3502 47.263 44.3502Z" fill="#1A1A1A"/>
<path d="M45.8584 41.2695C44.3642 41.2695 43.1484 40.052 43.1484 38.556C43.1484 37.0599 44.3642 35.8424 45.8584 35.8424C46.5502 35.8424 47.2056 36.1015 47.701 36.5716C47.8272 36.6927 47.9 36.8593 47.9 37.0338V40.0781C47.9 40.2526 47.8285 40.4205 47.701 40.5403C47.2043 41.0104 46.5502 41.2695 45.8584 41.2695ZM45.8584 37.1158C45.0651 37.1158 44.4202 37.7617 44.4202 38.556C44.4202 39.3502 45.0651 39.9961 45.8584 39.9961C46.1367 39.9961 46.4019 39.9179 46.6269 39.7721V37.3398C46.4019 37.194 46.1367 37.1158 45.8584 37.1158Z" fill="#1A1A1A"/>
<path d="M54.5662 44.021H51.1981C50.9628 44.021 50.7469 43.8907 50.6364 43.6837C50.5258 43.4754 50.5389 43.2241 50.6702 43.0288L53.4829 38.8439C53.7625 38.4272 53.6962 37.9598 53.5388 37.6603C53.4556 37.5001 53.2059 37.1251 52.691 37.1173C51.9771 37.1173 51.4127 37.6824 51.4127 38.3764C51.4127 38.728 51.1279 39.0131 50.7768 39.0131C50.4257 39.0131 50.1409 38.728 50.1409 38.3764C50.1409 36.9806 51.2762 35.8439 52.6702 35.8439C53.5415 35.8582 54.2723 36.3165 54.6663 37.0717C55.0811 37.8686 55.0317 38.8204 54.5362 39.5561L52.3906 42.7475H54.5636C54.9147 42.7475 55.1994 43.0327 55.1994 43.3842C55.202 43.7358 54.9173 44.021 54.5662 44.021Z" fill="#1A7248"/>
<path d="M60.937 31.616H57.5689C57.3336 31.616 57.1177 31.4858 57.0072 31.2787C56.8966 31.0717 56.9096 30.8191 57.041 30.6238L59.8537 26.4389C60.1333 26.0222 60.067 25.5535 59.9097 25.254C59.8264 25.0938 59.5754 24.7188 59.0631 24.711C59.0631 24.711 59.0631 24.711 59.0618 24.711C58.3479 24.711 57.7835 25.2748 57.7835 25.9688C57.7835 26.3204 57.4987 26.6055 57.1476 26.6055C56.7965 26.6055 56.5117 26.3204 56.5117 25.9688C56.5117 24.573 57.647 23.4363 59.041 23.4363C59.9123 23.4506 60.6418 23.9089 61.0358 24.6641C61.4519 25.461 61.4025 26.4128 60.9071 27.1498L58.7614 30.3412H60.9344C61.2855 30.3412 61.5703 30.6264 61.5703 30.9779C61.5703 31.3295 61.2881 31.616 60.937 31.616Z" fill="#1A1A1A"/>
<path d="M40.5908 56.6094C40.2397 56.6094 39.955 56.3242 39.955 55.9727V49.5195C39.955 49.168 40.2397 48.8828 40.5908 48.8828C40.942 48.8828 41.2267 49.168 41.2267 49.5195V55.9727C41.2267 56.3242 40.942 56.6094 40.5908 56.6094Z" fill="#1A7248"/>
<path d="M39.1864 53.5286C37.6922 53.5286 36.4764 52.3112 36.4764 50.8151C36.4764 49.319 37.6922 48.1016 39.1864 48.1016C39.8782 48.1016 40.5336 48.3607 41.029 48.8307C41.1552 48.9518 41.228 49.1185 41.228 49.293V52.3372C41.228 52.5117 41.1565 52.6797 41.0303 52.7995C40.5336 53.2682 39.8782 53.5286 39.1864 53.5286ZM39.1864 49.3737C38.3932 49.3737 37.7482 50.0195 37.7482 50.8138C37.7482 51.6081 38.3932 52.2539 39.1864 52.2539C39.4647 52.2539 39.73 52.1758 39.9549 52.0299V49.5976C39.73 49.4531 39.4647 49.3737 39.1864 49.3737Z" fill="#1A7248"/>
<path d="M65.5398 56.448C65.1887 56.448 64.9039 56.1628 64.9039 55.8113V48.9597C64.9039 48.6082 65.1887 48.323 65.5398 48.323C65.8909 48.323 66.1757 48.6082 66.1757 48.9597V55.8113C66.1757 56.1628 65.8909 56.448 65.5398 56.448Z" fill="#1A1A1A"/>
<path d="M59.8142 56.6096C58.5086 56.6096 57.4462 55.4846 57.4462 54.1031V50.6682C57.4462 49.2867 58.5086 48.163 59.8142 48.163C61.1198 48.163 62.1822 49.2867 62.1822 50.6682V54.1031C62.1822 55.4846 61.1198 56.6096 59.8142 56.6096ZM59.8142 49.4364C59.2096 49.4364 58.718 49.9898 58.718 50.6682V54.1031C58.718 54.7828 59.2096 55.3361 59.8142 55.3361C60.4189 55.3361 60.9105 54.7828 60.9105 54.1031V50.6682C60.9105 49.9885 60.4189 49.4364 59.8142 49.4364Z" fill="#1A7248"/>
<path d="M47.263 56.6094C46.9119 56.6094 46.6271 56.3242 46.6271 55.9727V49.5195C46.6271 49.168 46.9119 48.8828 47.263 48.8828C47.6141 48.8828 47.8989 49.168 47.8989 49.5195V55.9727C47.8989 56.3242 47.6141 56.6094 47.263 56.6094Z" fill="#1A1A1A"/>
<path d="M45.8584 53.5286C44.3642 53.5286 43.1484 52.3112 43.1484 50.8151C43.1484 49.319 44.3642 48.1016 45.8584 48.1016C46.5502 48.1016 47.2056 48.3607 47.701 48.8307C47.8272 48.9518 47.9 49.1185 47.9 49.293V52.3372C47.9 52.5117 47.8285 52.6797 47.7023 52.7995C47.2056 53.2682 46.5502 53.5286 45.8584 53.5286ZM45.8584 49.3737C45.0651 49.3737 44.4202 50.0195 44.4202 50.8138C44.4202 51.6081 45.0651 52.2539 45.8584 52.2539C46.1367 52.2539 46.4019 52.1758 46.6269 52.0299V49.5976C46.4019 49.4531 46.1367 49.3737 45.8584 49.3737Z" fill="#1A1A1A"/>
<path d="M54.5661 56.2787H51.1981C50.9628 56.2787 50.7469 56.1484 50.6364 55.9414C50.5258 55.7344 50.5388 55.4818 50.6702 55.2865L53.4829 51.1029C53.7625 50.6862 53.6962 50.2174 53.5388 49.918C53.4556 49.7578 53.2046 49.3828 52.691 49.375C51.9771 49.375 51.4127 49.9401 51.4127 50.6341C51.4127 50.9857 51.1279 51.2708 50.7768 51.2708C50.4257 51.2708 50.1409 50.9857 50.1409 50.6341C50.1409 49.2383 51.2762 48.1016 52.6702 48.1016C53.5414 48.1159 54.2723 48.5742 54.6663 49.3294C55.0811 50.125 55.0317 51.0781 54.5375 51.8151L52.3919 55.0065H54.5648C54.9159 55.0065 55.2007 55.2917 55.2007 55.6432C55.2007 55.9948 54.9172 56.2787 54.5661 56.2787Z" fill="#1A1A1A"/>
<path d="M37.111 87.4063C36.9965 87.4063 36.8808 87.3764 36.7768 87.31L33.2111 85.0977C32.912 84.9128 32.821 84.5196 33.0056 84.2214C33.1903 83.9232 33.5817 83.8295 33.8808 84.0157L37.4465 86.2279C37.7456 86.4128 37.8366 86.8061 37.6519 87.1042C37.5323 87.2996 37.3242 87.4063 37.111 87.4063Z" fill="#1A1A1A"/>
</g>
<defs>
<clipPath id="clip0">
<rect width="101" height="100" fill="white" transform="translate(0.943359)"/>
</clipPath>
</defs>
</svg>
