<?xml version="1.0" standalone="no"?>
<!DOCTYPE svg PUBLIC "-//W3C//DTD SVG 20010904//EN"
 "http://www.w3.org/TR/2001/REC-SVG-20010904/DTD/svg10.dtd">
<svg version="1.0" xmlns="http://www.w3.org/2000/svg"
 width="729.000000pt" height="550.000000pt" viewBox="0 0 729.000000 550.000000"
 preserveAspectRatio="xMidYMid meet">

<g transform="translate(0.000000,550.000000) scale(0.100000,-0.100000)"
fill="#000000" stroke="none">
<path d="M3767 4446 c-418 -211 -770 -394 -784 -408 -13 -14 -28 -42 -33 -64
-12 -50 -13 -2867 -1 -2914 5 -19 12 -42 15 -51 5 -12 -15 -26 -91 -62 -120
-56 -157 -64 -209 -42 -105 44 -127 113 -203 650 -79 550 -121 705 -253 923
-111 184 -277 302 -505 357 l-71 17 93 368 c51 203 96 377 99 387 3 10 28 30
54 45 62 35 143 120 177 188 35 70 55 165 55 273 0 81 2 90 30 129 41 56 64
138 56 202 -12 104 -93 214 -190 257 -129 57 -297 18 -427 -98 -43 -39 -52
-43 -100 -43 -178 -1 -369 -150 -440 -345 -32 -86 -32 -256 -1 -335 19 -48 58
-115 97 -167 14 -18 -52 -83 -157 -153 -48 -31 -165 -92 -260 -135 -272 -122
-330 -157 -433 -260 -97 -97 -140 -168 -170 -280 -21 -83 -19 -193 5 -262 l20
-56 -28 -31 c-15 -17 -42 -54 -60 -83 l-33 -52 16 -98 c162 -963 823 -1781
1722 -2131 171 -67 489 -152 570 -152 12 0 42 14 67 30 43 29 66 69 66 113 0
34 -39 103 -88 159 -26 29 -40 48 -32 42 196 -146 245 -168 283 -126 34 38 11
99 -69 182 l-34 36 202 87 c110 48 202 86 204 85 1 -2 4 -25 6 -52 l3 -49
-122 -55 c-68 -31 -123 -62 -123 -69 0 -7 2 -13 5 -13 3 0 60 25 127 55 67 30
122 54 123 53 1 -2 14 -29 28 -60 28 -62 58 -85 100 -74 41 10 52 54 39 156
-7 48 -12 97 -12 109 0 21 1 21 25 5 14 -9 62 -66 107 -126 111 -150 152 -175
202 -125 l23 23 31 -21 c18 -11 32 -23 32 -26 0 -3 -161 -84 -357 -179 -197
-95 -360 -175 -363 -178 -3 -2 42 -1 100 2 393 26 699 107 1052 278 l147 71
78 -46 c479 -281 1074 -357 1603 -206 793 227 1375 893 1494 1710 21 140 21
459 1 594 -73 493 -310 937 -669 1256 -89 79 -101 95 -131 164 -56 127 -114
215 -199 300 -88 87 -166 135 -261 160 -83 21 -233 19 -359 -5 -58 -11 -174
-32 -257 -45 -83 -14 -156 -28 -161 -31 -5 -3 -71 -10 -146 -15 -75 -5 -149
-11 -164 -15 l-28 -6 0 142 0 143 -69 81 c-79 92 -283 296 -297 296 -5 0 -350
-173 -767 -384z m843 -30 c-14 -14 -196 167 -185 184 5 8 38 -18 101 -81 63
-63 90 -97 84 -103z m-2845 -7 c53 -29 148 -36 197 -16 l38 16 24 -42 c37 -63
56 -149 56 -257 0 -164 -43 -282 -134 -368 -30 -28 -74 -61 -98 -73 l-44 -21
-103 -406 c-72 -284 -99 -407 -91 -412 8 -5 1 -96 -25 -336 -20 -181 -40 -337
-43 -346 -5 -13 -77 71 -294 345 l-288 362 43 3 c23 2 46 7 50 11 4 4 52 177
106 384 76 289 105 384 125 410 34 45 56 99 56 140 0 45 -33 87 -69 87 -48 0
-131 30 -164 59 -55 50 -40 128 37 185 23 18 42 21 124 21 87 1 103 4 152 29
69 36 170 133 222 214 39 60 42 62 62 47 12 -8 39 -25 61 -36z m3300 -268
c-58 -35 -85 -77 -85 -132 0 -82 54 -160 143 -205 17 -9 33 -18 35 -19 1 -1
-5 -35 -13 -76 -42 -197 -56 -441 -35 -594 16 -107 15 -105 69 -105 27 0 69
-3 94 -6 42 -6 49 -11 83 -63 56 -83 137 -157 221 -198 65 -32 86 -37 161 -41
58 -3 106 1 145 11 56 15 58 15 72 -6 33 -53 495 -820 495 -823 0 -3 -35 -39
-78 -82 -127 -126 -209 -264 -238 -402 -34 -163 -36 -757 -4 -1038 5 -47 7
-88 5 -92 -14 -22 -325 -138 -416 -155 -34 -6 -38 -4 -94 57 -79 84 -198 236
-278 350 -75 108 -116 180 -257 448 -116 220 -201 361 -303 500 -188 257 -385
424 -578 490 l-80 28 -118 183 c-66 100 -130 188 -143 195 -12 7 -34 13 -49
14 -21 0 -332 -67 -577 -124 l-64 -15 7 72 c18 194 92 468 178 657 257 567
774 993 1382 1139 103 25 251 49 310 50 l40 1 -30 -19z m308 -422 c55 -11 151
-23 214 -26 l114 -6 26 -51 c14 -28 32 -59 41 -68 16 -19 58 -24 80 -10 15 10
32 66 32 107 0 30 2 31 78 47 92 20 122 16 161 -24 57 -58 60 -159 8 -230 -16
-22 -19 -33 -11 -46 37 -59 231 -129 327 -119 29 3 63 9 77 12 24 6 41 -21
353 -526 l328 -531 -218 -414 c-182 -347 -219 -410 -228 -396 -7 9 -187 307
-400 662 -214 355 -391 649 -395 653 -4 5 -32 2 -61 -7 -126 -34 -205 -28
-318 24 -72 34 -168 126 -216 207 l-30 50 -88 6 c-49 3 -91 7 -93 9 -15 16
-26 176 -21 318 5 144 35 372 53 401 2 4 23 1 46 -7 23 -8 86 -23 141 -35z
m1328 -187 c269 -293 450 -642 524 -1008 33 -160 32 -180 -3 -198 l-27 -14
-319 515 -318 516 1 92 c1 51 -6 128 -14 171 -8 44 -15 81 -15 82 0 9 124
-104 171 -156z m-5557 -1868 c146 -649 266 -1183 266 -1186 0 -3 -18 -17 -41
-32 l-40 -27 -52 32 c-72 44 -216 153 -312 236 -67 58 -89 85 -132 164 -120
220 -204 513 -236 824 -13 128 -34 160 -29 45 10 -246 87 -555 197 -798 l35
-77 -60 65 c-33 36 -93 108 -134 160 -264 342 -445 736 -525 1145 -36 187 -37
173 9 244 110 170 303 300 531 356 85 21 242 44 250 36 4 -3 127 -537 273
-1187z m-17 934 c346 -435 418 -523 428 -523 5 0 28 160 51 368 23 202 45 371
48 374 3 4 11 2 17 -4 8 -8 147 -631 435 -1951 15 -67 25 -124 23 -126 -2 -2
-47 -12 -99 -21 -133 -22 -319 -87 -466 -160 -78 -39 -127 -59 -129 -52 -2 7
-119 525 -260 1152 -141 627 -260 1155 -265 1173 -5 18 -5 32 1 32 4 0 102
-118 216 -262z m683 172 c135 -49 241 -123 314 -219 168 -223 225 -409 311
-1016 67 -474 93 -572 168 -629 56 -43 119 -49 205 -22 l23 8 -3 -137 -3 -136
-159 -70 c-88 -38 -163 -69 -168 -69 -5 0 -31 17 -59 38 l-50 37 139 5 c138 5
172 14 172 44 0 18 -38 50 -85 74 -45 22 -168 52 -214 52 -16 0 -32 4 -36 9
-3 6 -41 202 -84 438 -73 400 -78 429 -63 451 23 35 30 114 21 208 -9 92 -56
301 -69 309 -20 12 -19 -19 5 -117 49 -209 54 -341 15 -391 -18 -22 -16 -33
61 -457 43 -238 78 -435 76 -436 -4 -5 -157 -7 -162 -3 -2 3 -22 90 -45 194
-93 431 -401 1831 -406 1848 -7 23 2 22 96 -13z m5454 -521 c22 -220 -16 -524
-100 -779 -117 -357 -342 -695 -617 -926 -103 -87 -234 -181 -241 -173 -3 2
-12 85 -22 184 -16 170 -24 208 -41 192 -5 -6 14 -247 30 -386 2 -17 -93 -76
-103 -64 -26 27 -46 605 -31 858 16 260 37 337 129 480 43 67 180 215 198 215
5 0 72 -106 149 -235 77 -129 145 -235 151 -235 6 0 113 195 238 432 196 373
226 436 217 455 -8 18 -7 24 7 32 27 16 29 14 36 -50z m-3378 -3 c21 -21 354
-529 354 -540 0 -3 -26 -6 -59 -6 -97 0 -171 -37 -171 -86 0 -35 46 -82 93
-95 138 -37 237 -99 376 -234 83 -81 126 -133 194 -238 87 -134 99 -166 77
-207 -14 -25 -21 -27 -504 -135 -411 -91 -430 -94 -449 -77 -40 36 -194 220
-249 297 -78 112 -169 278 -218 401 -38 95 -103 295 -97 301 2 1 156 36 342
78 388 87 375 83 375 96 0 16 -36 10 -381 -67 -187 -42 -342 -75 -344 -73 -6
7 -38 200 -33 204 2 2 144 35 317 74 172 38 315 72 319 75 25 26 -50 15 -318
-45 -168 -38 -310 -69 -316 -69 -10 0 -28 219 -19 228 9 10 653 149 670 145
11 -3 29 -15 41 -27z m410 -354 c208 -105 416 -331 630 -683 94 -155 267 -490
258 -498 -30 -26 -726 -411 -734 -406 -23 14 -130 238 -119 249 3 3 108 28
234 56 278 61 289 65 315 97 40 51 29 84 -80 251 -81 124 -96 152 -80 152 34
0 22 17 -26 35 -33 12 -82 52 -173 139 -169 163 -235 207 -382 255 -108 35
-128 79 -54 116 80 38 253 19 410 -47 91 -39 119 -45 113 -27 -6 18 -133 72
-220 94 l-67 17 -78 121 c-43 66 -79 124 -81 129 -5 11 63 -14 134 -50z m-863
-839 c13 -21 29 -48 36 -61 l12 -23 -38 19 c-21 11 -56 25 -78 32 -22 7 -44
15 -49 18 -8 5 69 50 86 52 4 0 18 -17 31 -37z m-10 -89 c28 -15 65 -36 80
-47 38 -26 87 -95 87 -121 -1 -21 -1 -21 -16 -1 -68 90 -86 77 -25 -17 41 -62
41 -64 41 -155 0 -51 -2 -93 -5 -93 -3 0 -21 33 -41 73 -60 119 -135 224 -152
213 -7 -4 10 -37 45 -89 65 -95 143 -253 143 -289 0 -14 -7 -32 -16 -39 -13
-11 -22 -10 -52 6 -29 16 -46 40 -91 128 -55 107 -132 217 -151 217 -19 0 -10
-19 39 -84 67 -90 125 -209 117 -242 -8 -30 -30 -40 -60 -26 -13 6 -55 53 -94
105 -78 105 -134 163 -164 173 -38 12 -42 -8 -28 -132 14 -124 10 -146 -28
-152 -14 -2 -27 6 -38 23 -20 31 -54 148 -54 188 0 16 -5 37 -10 48 -10 18
-13 18 -40 4 -16 -8 -34 -15 -40 -15 -6 0 -10 47 -10 135 l0 135 62 31 c55 28
66 30 93 20 54 -19 106 -12 174 23 65 33 65 33 123 20 32 -8 82 -26 111 -40z
m-915 -279 c98 -23 177 -69 150 -87 -7 -4 -83 -8 -168 -8 l-155 0 -49 35 c-44
31 -66 37 -66 16 0 -4 37 -32 82 -62 192 -127 312 -244 306 -298 -4 -35 -38
-39 -86 -11 -20 12 -93 64 -162 115 -143 106 -187 132 -203 116 -7 -7 1 -19
24 -38 70 -57 182 -169 211 -211 37 -54 45 -99 24 -140 -9 -18 -21 -32 -26
-32 -5 0 -21 22 -35 50 -48 94 -230 260 -286 260 -33 0 -21 -18 28 -42 26 -13
79 -53 118 -89 69 -66 150 -183 138 -202 -3 -5 -26 -7 -50 -4 -39 4 -54 14
-121 79 -81 79 -164 138 -194 138 -31 0 -20 -17 26 -40 42 -20 191 -148 183
-156 -7 -7 -228 53 -352 96 -120 41 -485 214 -485 230 0 12 138 93 245 144
158 77 343 132 515 156 90 12 312 4 388 -15z m2783 -129 c77 -118 193 -269
290 -378 38 -42 66 -79 61 -82 -4 -2 -60 -13 -123 -23 -81 -12 -169 -17 -304
-17 -210 1 -357 20 -548 74 -96 27 -105 31 -149 80 -27 28 -48 54 -48 58 1 4
166 100 368 214 318 180 368 206 377 191 6 -9 40 -61 76 -117z m-976 -53 c29
-77 80 -175 129 -246 25 -37 44 -67 41 -67 -11 0 -189 82 -242 111 -74 41
-250 156 -258 168 -3 5 48 21 112 36 65 15 132 31 148 35 49 13 52 12 70 -37z"/>
<path d="M1885 4150 c-4 -6 -2 -16 3 -23 13 -15 57 -124 66 -158 5 -25 3 -27
-45 -35 -27 -5 -50 -12 -49 -16 0 -5 2 -8 5 -8 3 0 33 0 66 0 l62 0 -7 42 c-8
50 -62 182 -81 198 -9 8 -15 8 -20 0z"/>
<path d="M4162 2621 c-98 -113 -105 -122 -95 -132 9 -9 163 159 163 180 0 22
-18 10 -68 -48z"/>
<path d="M4435 2423 c-148 -102 -171 -123 -142 -123 18 0 307 198 307 210 0
24 -27 10 -165 -87z"/>
<path d="M880 1695 c-9 -11 -11 -32 -6 -74 l7 -58 -87 -16 c-91 -17 -103 -22
-88 -36 5 -5 44 -3 92 6 45 9 85 13 88 10 3 -3 34 -155 69 -337 35 -183 69
-338 76 -346 24 -29 69 -9 69 31 0 11 -27 165 -61 343 -34 178 -59 325 -56
328 9 10 77 22 81 15 2 -3 34 -167 71 -363 l68 -358 -77 -71 c-42 -39 -76 -75
-76 -81 0 -20 30 0 105 70 l79 74 -69 361 c-37 199 -72 372 -76 384 -7 18 -13
21 -42 16 -33 -5 -35 -3 -42 26 -4 21 -12 31 -25 31 -11 0 -25 12 -32 28 -15
31 -49 40 -68 17z m100 -97 c0 -19 -2 -20 -10 -8 -13 19 -13 30 0 30 6 0 10
-10 10 -22z"/>
<path d="M4110 1398 c0 -2 -9 -96 -19 -211 -10 -114 -21 -210 -24 -213 -3 -4
-46 10 -94 31 -48 20 -94 39 -102 42 -8 4 -12 0 -10 -11 3 -11 41 -33 107 -62
117 -49 132 -52 132 -25 0 29 29 370 35 414 4 29 2 37 -10 37 -8 0 -15 -1 -15
-2z"/>
<path d="M6890 4286 c0 -80 3 -96 15 -96 13 0 15 15 13 92 -2 62 -7 93 -15 96
-10 3 -13 -20 -13 -92z"/>
<path d="M537 602 l-57 -58 60 -59 60 -60 57 58 58 57 -60 60 -60 60 -58 -58z
m100 -99 l-37 -37 -40 39 -40 39 37 38 37 38 41 -40 40 -40 -38 -37z"/>
<path d="M635 338 c-106 -110 -119 -128 -109 -138 9 -9 184 170 184 190 0 20
-17 8 -75 -52z"/>
<path d="M2985 258 c-71 -36 -69 -34 -61 -47 7 -11 149 52 154 69 6 18 -33 9
-93 -22z"/>
<path d="M2718 134 c-62 -31 -87 -55 -55 -53 22 1 142 64 140 74 -3 18 -18 14
-85 -21z"/>
</g>
</svg>
