<svg width="49" height="45" viewBox="0 0 49 45" fill="none" xmlns="http://www.w3.org/2000/svg">
<g clip-path="url(#clip0)">
<path d="M24.4241 22.1591C23.1159 22.1591 21.837 22.549 20.7492 23.2794C19.6615 24.0099 18.8137 25.0481 18.313 26.2628C17.8124 27.4775 17.6814 28.8142 17.9366 30.1037C18.1919 31.3932 18.8218 32.5777 19.7469 33.5074C20.672 34.4371 21.8506 35.0703 23.1337 35.3268C24.4168 35.5833 25.7467 35.4516 26.9554 34.9485C28.1641 34.4453 29.1971 33.5933 29.9239 32.5001C30.6507 31.4069 31.0387 30.1216 31.0387 28.8068C31.0387 27.0437 30.3418 25.3528 29.1013 24.1061C27.8608 22.8595 26.1784 22.1591 24.4241 22.1591ZM24.4241 31.0227C23.988 31.0227 23.5617 30.8927 23.1992 30.6493C22.8366 30.4058 22.554 30.0597 22.3871 29.6548C22.2202 29.2499 22.1765 28.8043 22.2616 28.3745C22.3467 27.9447 22.5567 27.5498 22.865 27.2399C23.1734 26.93 23.5663 26.719 23.994 26.6335C24.4217 26.548 24.865 26.5918 25.2679 26.7596C25.6708 26.9273 26.0151 27.2113 26.2574 27.5757C26.4997 27.9401 26.629 28.3685 26.629 28.8068C26.629 29.3945 26.3967 29.9581 25.9832 30.3737C25.5697 30.7892 25.0089 31.0227 24.4241 31.0227ZM22.8587 17.0846C23.0683 17.2864 23.3156 17.4445 23.5863 17.55C23.8502 17.6672 24.1356 17.7278 24.4241 17.7278C24.7127 17.7278 24.998 17.6672 25.262 17.55C25.5326 17.4445 25.7799 17.2864 25.9896 17.0846L31.0387 12.0989C31.4656 11.6698 31.7054 11.088 31.7054 10.4812C31.7054 9.87452 31.4656 9.29265 31.0387 8.86363C30.6118 8.43461 30.0328 8.19359 29.4291 8.19359C28.8254 8.19359 28.2465 8.43461 27.8196 8.86363L26.629 10.171V2.21591C26.629 1.62821 26.3967 1.06459 25.9832 0.649024C25.5697 0.233461 25.0089 0 24.4241 0C23.8393 0 23.2785 0.233461 22.865 0.649024C22.4515 1.06459 22.2192 1.62821 22.2192 2.21591V10.171L21.0286 8.86363C20.6017 8.43461 20.0228 8.19359 19.4191 8.19359C18.8154 8.19359 18.2364 8.43461 17.8095 8.86363C17.3827 9.29265 17.1428 9.87452 17.1428 10.4812C17.1428 11.088 17.3827 11.6698 17.8095 12.0989L22.8587 17.0846ZM39.8581 28.8068C39.8581 28.3685 39.7288 27.9401 39.4865 27.5757C39.2443 27.2113 38.8999 26.9273 38.497 26.7596C38.0941 26.5918 37.6508 26.548 37.2231 26.6335C36.7954 26.719 36.4025 26.93 36.0942 27.2399C35.7858 27.5498 35.5758 27.9447 35.4908 28.3745C35.4057 28.8043 35.4494 29.2499 35.6162 29.6548C35.7831 30.0597 36.0657 30.4058 36.4283 30.6493C36.7909 30.8927 37.2172 31.0227 37.6533 31.0227C38.238 31.0227 38.7989 30.7892 39.2123 30.3737C39.6258 29.9581 39.8581 29.3945 39.8581 28.8068ZM42.063 13.2954H35.4484C34.8636 13.2954 34.3028 13.5289 33.8893 13.9445C33.4758 14.36 33.2435 14.9237 33.2435 15.5114C33.2435 16.099 33.4758 16.6627 33.8893 17.0782C34.3028 17.4938 34.8636 17.7273 35.4484 17.7273H42.063C42.6477 17.7273 43.2086 17.9607 43.6221 18.3763C44.0355 18.7918 44.2678 19.3555 44.2678 19.9432V37.6704C44.2678 38.2581 44.0355 38.8217 43.6221 39.2373C43.2086 39.6529 42.6477 39.8863 42.063 39.8863H6.78523C6.20047 39.8863 5.63965 39.6529 5.22616 39.2373C4.81267 38.8217 4.58037 38.2581 4.58037 37.6704V19.9432C4.58037 19.3555 4.81267 18.7918 5.22616 18.3763C5.63965 17.9607 6.20047 17.7273 6.78523 17.7273H13.3998C13.9846 17.7273 14.5454 17.4938 14.9589 17.0782C15.3724 16.6627 15.6047 16.099 15.6047 15.5114C15.6047 14.9237 15.3724 14.36 14.9589 13.9445C14.5454 13.5289 13.9846 13.2954 13.3998 13.2954H6.78523C5.03094 13.2954 3.34849 13.9958 2.10802 15.2425C0.867545 16.4892 0.170654 18.1801 0.170654 19.9432V37.6704C0.170654 39.4335 0.867545 41.1244 2.10802 42.3711C3.34849 43.6178 5.03094 44.3182 6.78523 44.3182H42.063C43.8173 44.3182 45.4997 43.6178 46.7402 42.3711C47.9807 41.1244 48.6776 39.4335 48.6776 37.6704V19.9432C48.6776 18.1801 47.9807 16.4892 46.7402 15.2425C45.4997 13.9958 43.8173 13.2954 42.063 13.2954ZM8.99009 28.8068C8.99009 29.2451 9.11941 29.6735 9.36168 30.0379C9.60395 30.4023 9.9483 30.6863 10.3512 30.854C10.7541 31.0217 11.1974 31.0656 11.6251 30.9801C12.0528 30.8946 12.4457 30.6836 12.754 30.3737C13.0624 30.0638 13.2724 29.6689 13.3574 29.2391C13.4425 28.8093 13.3989 28.3637 13.232 27.9588C13.0651 27.5539 12.7825 27.2078 12.4199 26.9643C12.0573 26.7209 11.631 26.5909 11.195 26.5909C10.6102 26.5909 10.0494 26.8244 9.63588 27.2399C9.22239 27.6555 8.99009 28.2191 8.99009 28.8068Z" fill="#13AB50"/>
</g>
<defs>
<clipPath id="clip0">
<rect width="48.8461" height="45" fill="white" transform="translate(-0.00012207)"/>
</clipPath>
</defs>
</svg>
