<svg width="63" height="45" viewBox="0 0 63 45" fill="none" xmlns="http://www.w3.org/2000/svg">
<path d="M51.1034 43.5325H42.3429V12.2281C42.3429 11.6881 42.779 11.2499 43.3163 11.2499H50.13C50.6673 11.2499 51.1034 11.6881 51.1034 12.2281V43.5325Z" fill="#95CFFF"/>
<path d="M47.6965 11.2499H43.3163C42.779 11.2499 42.3429 11.6881 42.3429 12.2281V43.5325H46.7231V12.2281C46.7231 11.6881 47.1592 11.2499 47.6965 11.2499Z" fill="#95CFFF"/>
<path d="M12.1046 17.0581L28.6914 0.471395L30.7611 2.54111L14.1744 19.1278L12.1046 17.0581Z" fill="#186DB4"/>
<path d="M31.1484 9.78261H28.2282V2.93478H21.4146V0H29.6883C30.4943 0 31.1484 0.657391 31.1484 1.46739V9.78261Z" fill="#186DB4"/>
<path d="M-3.05176e-05 42.0651H62.2966V44.9998H-3.05176e-05V42.0651Z" fill="#186DB4"/>
<path d="M19.9543 44.9998H11.1938C10.3879 44.9998 9.73376 44.3424 9.73376 43.5324V27.8802C9.73376 26.5322 10.8259 25.4346 12.1672 25.4346H18.9809C20.3222 25.4346 21.4144 26.5322 21.4144 27.8802V43.5324C21.4144 44.3424 20.7603 44.9998 19.9543 44.9998ZM12.6539 42.065H18.4942V28.3694H12.6539V42.065Z" fill="#186DB4"/>
<path d="M35.5285 44.9999H26.768C25.9621 44.9999 25.308 44.3426 25.308 43.5326V20.0543C25.308 18.7063 26.4001 17.6086 27.7414 17.6086H34.5551C35.8964 17.6086 36.9885 18.7063 36.9885 20.0543V43.5326C36.9885 44.3426 36.3344 44.9999 35.5285 44.9999ZM28.2281 42.0652H34.0684V20.5434H28.2281V42.0652Z" fill="#186DB4"/>
<path d="M51.1027 45H42.3422C41.5363 45 40.8821 44.3426 40.8821 43.5326V12.2282C40.8821 10.8802 41.9743 9.78259 43.3156 9.78259H50.1293C51.4706 9.78259 52.5628 10.8802 52.5628 12.2282V43.5326C52.5628 44.3426 51.9086 45 51.1027 45ZM43.8023 42.0652H49.6426V12.7174H43.8023V42.0652Z" fill="#186DB4"/>
</svg>
