<svg width="101" height="100" viewBox="0 0 101 100" fill="none" xmlns="http://www.w3.org/2000/svg">
<ellipse cx="50.9412" cy="50" rx="49.7507" ry="50" fill="#F5F7FB"/>
<path d="M38.9993 70.5755C38.9785 70.5755 38.9564 70.5742 38.9343 70.5729C38.5858 70.5377 38.3296 70.2252 38.3647 69.8763C38.3712 69.8125 38.9824 63.4479 37.5806 59.0781C36.2386 54.9023 34.4661 47.207 37.6625 42.5859C39.8472 39.4257 42.8914 39.3437 44.2594 40.2799C44.366 40.3528 44.4635 40.431 44.5507 40.5143C44.5429 40.4401 44.5377 40.3606 44.5338 40.2799C44.4843 39.431 44.8485 38.7421 45.5572 38.3424C47.4635 37.2669 51.4947 38.4583 53.3244 39.7187C55.8862 41.4843 55.6495 43.6953 55.6391 43.789C55.5975 44.1393 55.275 44.3906 54.9304 44.345C54.5832 44.3033 54.3335 43.9843 54.3764 43.6354C54.3816 43.5794 54.5012 42.0768 52.604 40.7682C50.9213 39.608 47.4375 38.7461 46.1827 39.4518C45.8953 39.6132 45.7821 39.8398 45.8042 40.2057C45.868 41.2994 46.0032 41.3658 46.7548 41.7395C47.5702 42.1432 48.799 42.7539 50.5286 44.8138C51.9668 46.5299 51.9317 48.7539 50.4284 50.9179C48.7145 53.3854 45.5715 55.1744 43.9824 54.6041C42.6677 54.1341 41.7899 53.2487 41.3725 51.9713C40.4115 49.0299 42.2724 44.6562 43.669 42.5911C44.0279 42.0599 43.9863 41.6354 43.5429 41.3307C42.7223 40.7708 40.4635 40.7747 38.7106 43.3099C35.8263 47.4817 37.5247 54.7356 38.7925 58.6875C40.2776 63.3125 39.6586 69.7318 39.6313 70.0026C39.5975 70.3307 39.3205 70.5755 38.9993 70.5755ZM45.1592 42.2057C45.1111 42.569 44.9668 42.9427 44.7223 43.3033C43.366 45.3073 41.8055 49.1979 42.5806 51.5742C42.8732 52.47 43.4713 53.069 44.4089 53.4036C45.2529 53.7005 47.8758 52.3606 49.3842 50.1901C50.2087 49.0026 50.9083 47.2474 49.5546 45.6328C47.9967 43.776 46.9525 43.2578 46.1905 42.8802C45.7691 42.6705 45.4232 42.4843 45.1592 42.2057Z" fill="#1A1A1A"/>
<path d="M53.0449 52.1197C52.9916 52.1197 52.9383 52.1132 52.8837 52.0989C52.5443 52.0103 52.3414 51.6614 52.4298 51.3215C52.6509 50.4713 52.8863 49.509 53.1333 48.4895C54.859 41.3997 56.3726 35.9322 58.8252 35.3814C59.9383 35.1327 60.621 35.5103 61.002 35.871C62.3609 37.164 61.8876 40.1913 61.8291 40.5325C61.7693 40.8801 61.4337 41.1106 61.0943 41.052C60.7471 40.9934 60.5157 40.664 60.5742 40.3176C60.7497 39.2864 60.7823 37.4192 60.1243 36.7942C59.9773 36.6562 59.7146 36.4882 59.1034 36.6249C57.227 37.0468 55.4376 44.3984 54.3687 48.7916C54.119 49.8176 53.8824 50.7864 53.66 51.6431C53.5859 51.9296 53.3284 52.1197 53.0449 52.1197Z" fill="#1A1A1A"/>
<path d="M57.836 53.9088C57.7905 53.9088 57.7424 53.9036 57.6956 53.8931C57.3523 53.815 57.1377 53.4752 57.2157 53.1314C59.2612 44.0546 60.8698 38.5494 63.0311 37.272C63.5525 36.9647 64.1195 36.8892 64.6721 37.0494C67.7164 37.9335 66.8607 42.3176 66.8243 42.5038C66.7541 42.8476 66.4225 43.0728 66.074 42.9999C65.7307 42.9309 65.5083 42.595 65.5772 42.2499C65.585 42.2161 66.2404 38.8306 64.3171 38.272C64.0974 38.2095 63.8971 38.2382 63.6786 38.3684C61.823 39.4648 60.0727 46.246 58.4563 53.4114C58.39 53.7082 58.126 53.9088 57.836 53.9088Z" fill="#1A1A1A"/>
<path d="M62.7072 70.5755C62.637 70.5755 62.5654 70.5637 62.4965 70.539C62.1649 70.4218 61.9907 70.0572 62.1077 69.7265C63.5212 65.7187 67.2677 54.7981 68.6786 50.3945C69.8593 46.7083 70.0791 42.9114 69.1896 41.5611C68.9842 41.2499 68.7371 41.0898 68.4146 41.0598C67.1818 40.9205 66.2195 43.9583 64.5225 49.4374C64.0024 51.1197 63.4029 53.0546 62.6864 55.2577C62.5771 55.5924 62.2247 55.7773 61.884 55.6666C61.5498 55.5572 61.3691 55.1978 61.477 54.8632C62.1922 52.6666 62.7904 50.7369 63.308 49.0611C65.3847 42.3528 66.2403 39.5781 68.5342 39.7916C69.2417 39.858 69.8346 40.2278 70.2521 40.8606C71.5616 42.8489 71.0154 47.276 69.8918 50.7838C68.477 55.1978 64.7241 66.1366 63.3093 70.151C63.2156 70.4114 62.9699 70.5755 62.7072 70.5755Z" fill="#1A1A1A"/>
<path d="M32.7006 50.7448H18.0583C17.7071 50.7448 17.4224 50.4596 17.4224 50.1081V31.6133C17.4224 31.2617 17.7071 30.9766 18.0583 30.9766H32.7006C33.0517 30.9766 33.3365 31.2617 33.3365 31.6133V50.1081C33.3365 50.4596 33.053 50.7448 32.7006 50.7448ZM18.6941 49.4714H32.0647V32.25H18.6941V49.4714Z" fill="#1A1A1A"/>
<path d="M79.3547 72.3593H21.7267C19.3521 72.3593 17.4224 70.4257 17.4224 68.0494V27.8384C17.4224 25.4621 19.3534 23.5285 21.7267 23.5285H79.3547C81.7293 23.5285 83.659 25.4621 83.659 27.8384V68.0494C83.6603 70.427 81.7293 72.3593 79.3547 72.3593ZM21.7267 24.802C20.0543 24.802 18.6941 26.164 18.6941 27.8384V68.0494C18.6941 69.7226 20.0543 71.0845 21.7267 71.0845H79.3547C81.027 71.0845 82.3873 69.7226 82.3873 68.0494V27.8384C82.3873 26.164 81.027 24.802 79.3547 24.802H21.7267Z" fill="#1A1A1A"/>
<path d="M56.7108 71.7266H44.3688V83.5964H56.7108V71.7266Z" fill="#1A1A1A"/>
<path d="M63.0033 84.2343H38.0761C37.725 84.2343 37.4402 83.9492 37.4402 83.5976C37.4402 83.246 37.725 82.9609 38.0761 82.9609H63.0033C63.3544 82.9609 63.6392 83.246 63.6392 83.5976C63.6392 83.9492 63.3544 84.2343 63.0033 84.2343Z" fill="#1A1A1A"/>
<path d="M77.7133 66.1315H71.3258C70.9747 66.1315 70.6899 65.8464 70.6899 65.4948C70.6899 65.1432 70.9747 64.8581 71.3258 64.8581H77.7133C78.0644 64.8581 78.3492 65.1432 78.3492 65.4948C78.3492 65.8464 78.0644 66.1315 77.7133 66.1315Z" fill="#603FD5"/>
<path d="M74.5576 35.3061C74.542 35.3061 74.5251 35.3061 74.5095 35.3048C74.2949 35.2891 74.1025 35.1641 73.9984 34.9727L73.8541 34.7058C73.2325 33.5469 72.6473 32.4532 71.1727 31.3321C70.9932 31.1954 70.8996 30.974 70.9269 30.7501C70.9529 30.5261 71.096 30.3321 71.3027 30.2423C72.4484 29.737 72.8749 28.8868 73.5225 27.6003C73.6694 27.3074 73.8242 27.0001 73.9971 26.6785C74.1038 26.4792 74.3092 26.3516 74.5355 26.3438C74.7657 26.3347 74.975 26.4493 75.096 26.6407C75.36 27.06 75.581 27.4584 75.7891 27.8373C76.3495 28.8516 76.7904 29.6537 77.8138 30.2839C77.9945 30.3946 78.1064 30.5873 78.1168 30.7982C78.1259 31.0092 78.0284 31.2123 77.858 31.3373C77.0271 31.9532 76.6096 32.642 76.0804 33.5144C75.7852 34.0027 75.4783 34.5079 75.0648 35.0561C74.9438 35.2136 74.7566 35.3061 74.5576 35.3061ZM72.6681 30.9206C73.6044 31.7774 74.1571 32.6238 74.6226 33.4532C74.7514 33.2501 74.8736 33.0495 74.9945 32.8516C75.4185 32.1524 75.8242 31.4831 76.4536 30.8646C75.6148 30.1537 75.1558 29.3217 74.6759 28.4506C74.6486 28.4011 74.6213 28.3516 74.594 28.3021C74.0739 29.3334 73.5888 30.2514 72.6681 30.9206Z" fill="#603FD5"/>
<path d="M30.0203 89.1055C29.8578 89.1055 29.6952 89.043 29.5704 88.9193L27.5899 86.9362C27.3415 86.6875 27.3415 86.2839 27.5899 86.0352C27.8383 85.7865 28.2414 85.7865 28.4898 86.0352L30.4703 88.0182C30.7186 88.2669 30.7186 88.6706 30.4703 88.9193C30.3454 89.043 30.1829 89.1055 30.0203 89.1055Z" fill="#1A1A1A"/>
<path d="M24.1593 45.384C23.8082 45.384 23.5234 45.0989 23.5234 44.7473V36.9752C23.5234 36.6236 23.8082 36.3385 24.1593 36.3385C24.5104 36.3385 24.7952 36.6236 24.7952 36.9752V44.7473C24.7952 45.0989 24.5104 45.384 24.1593 45.384Z" fill="#603FD5"/>
<path d="M28.0396 41.4975H20.2776C19.9265 41.4975 19.6417 41.2123 19.6417 40.8607C19.6417 40.5092 19.9265 40.224 20.2776 40.224H28.0396C28.3907 40.224 28.6755 40.5092 28.6755 40.8607C28.6755 41.2123 28.3907 41.4975 28.0396 41.4975Z" fill="#603FD5"/>
</svg>
