<svg width="100" height="100" viewBox="0 0 100 100" fill="none" xmlns="http://www.w3.org/2000/svg">
<circle cx="50" cy="50" r="50" fill="#F5F7FB"/>
<path d="M18.5125 64.4336C18.3562 64.4336 18.2039 64.3763 18.088 64.2682C17.9565 64.1484 17.8823 63.9805 17.8823 63.8034V29.0573C17.8823 28.7305 18.1297 28.4596 18.4552 28.4297L65.1192 24.1354C66.0828 24.043 67.0476 24.3698 67.7638 25.0234C68.4799 25.6758 68.8901 26.6068 68.8901 27.5755V59.2252C68.8901 59.5521 68.6427 59.8229 68.3172 59.8529L18.5711 64.4323C18.5515 64.4323 18.532 64.4336 18.5125 64.4336ZM19.1427 29.6328V63.112L67.6284 58.6484V27.5742C67.6284 26.9505 67.3745 26.3737 66.9135 25.9531C66.4526 25.5338 65.8523 25.3333 65.2338 25.3906L19.1427 29.6328ZM68.2586 59.2239H68.2703H68.2586Z" fill="#1A1A1A"/>
<path d="M83.3055 38.4349H47.5177V61.9649H83.3055V38.4349Z" fill="white"/>
<path d="M83.3067 62.5951H47.5176C47.1686 62.5951 46.8874 62.3138 46.8874 61.9649V38.4349C46.8874 38.0859 47.1686 37.8047 47.5176 37.8047H83.3067C83.6556 37.8047 83.9369 38.0859 83.9369 38.4349V61.9649C83.9369 62.3138 83.6543 62.5951 83.3067 62.5951ZM48.1478 61.3346H82.6764V39.0651H48.1478V61.3346Z" fill="#1A1A1A"/>
<path d="M79.472 58.7044C79.123 58.7044 78.8418 58.4232 78.8418 58.0742V41.6888C78.8418 41.3398 79.123 41.0586 79.472 41.0586C79.8209 41.0586 80.1022 41.3398 80.1022 41.6888V58.0742C80.1022 58.4219 79.8209 58.7044 79.472 58.7044Z" fill="#1A1A1A"/>
<path d="M40.5419 55.052H71.2945C72.4156 55.052 73.4091 54.5013 74.0172 53.6562C74.413 53.1054 74.6474 52.4296 74.6474 51.6992V35.2421C74.6474 34.1211 74.0966 33.1276 73.2502 32.5182C72.6994 32.1224 72.0237 31.8893 71.2945 31.8893H40.5419C39.4208 31.8893 38.4273 32.4401 37.8192 33.2851C37.4234 33.8359 37.189 34.5117 37.189 35.2421V51.6992C37.189 52.4296 37.4221 53.1054 37.8192 53.6562C38.4273 54.5013 39.4208 55.052 40.5419 55.052Z" fill="white"/>
<path d="M71.6212 55.6823H40.215C38.1993 55.6823 36.5587 54.043 36.5587 52.026V34.9141C36.5587 32.8971 38.1993 31.2578 40.215 31.2578H71.6212C73.6368 31.2578 75.2775 32.8971 75.2775 34.9141V52.026C75.2775 54.043 73.6368 55.6823 71.6212 55.6823ZM40.215 32.5195C38.8947 32.5195 37.8191 33.5937 37.8191 34.9154V52.0273C37.8191 53.3477 38.8934 54.4232 40.215 54.4232H71.6212C72.9415 54.4232 74.017 53.349 74.017 52.0273V34.9141C74.017 33.5938 72.9428 32.5182 71.6212 32.5182H40.215V32.5195Z" fill="#1A1A1A"/>
<path d="M74.6474 36.6354H37.189V42.427H74.6474V36.6354Z" fill="#1A1A1A"/>
<path d="M74.6473 43.0572H37.1889C36.84 43.0572 36.5587 42.776 36.5587 42.427V36.6353C36.5587 36.2864 36.84 36.0051 37.1889 36.0051H74.646C74.9949 36.0051 75.2762 36.2864 75.2762 36.6353V42.427C75.2775 42.776 74.9949 43.0572 74.6473 43.0572ZM37.8191 41.7968H74.0157V37.2655H37.8191V41.7968Z" fill="#1A1A1A"/>
<path d="M60.8733 75.1523L18.5126 63.8021V29.0573L62.3316 40.7981C63.5647 41.1289 64.4214 42.2461 64.4214 43.5221V72.4284C64.4228 74.2825 62.6636 75.6328 60.8733 75.1523Z" fill="white"/>
<path d="M61.6107 75.8814C61.3113 75.8814 61.0079 75.8423 60.7097 75.7616L18.3503 64.4126C18.0743 64.3384 17.8829 64.0884 17.8829 63.8033V29.0572C17.8829 28.8619 17.974 28.677 18.1303 28.5572C18.2852 28.4361 18.4896 28.3996 18.6771 28.4478L62.4962 40.1887C64.0027 40.5936 65.0535 41.9634 65.0535 43.522V72.4283C65.0535 73.5103 64.5613 74.5077 63.7032 75.1665C63.0899 75.6366 62.3594 75.8814 61.6107 75.8814ZM19.142 63.3189L61.0339 74.5428C61.6967 74.7225 62.3881 74.5832 62.9337 74.1665C63.4779 73.7486 63.7904 73.1158 63.7904 72.4283V43.522C63.7904 42.5337 63.1225 41.6627 62.1667 41.4061L19.142 29.8775V63.3189Z" fill="#1A1A1A"/>
<path d="M49.7105 50.4596L44.1285 48.9635V43.3815L35.4683 41.0612V46.6432L29.8863 45.1471V53.8073L35.4683 55.3033V60.8854L44.1285 63.2057V57.6237L49.7105 59.1198V50.4596Z" fill="white"/>
<path d="M44.1291 63.8359C44.0744 63.8359 44.0197 63.8281 43.9663 63.8151L35.3062 61.4948C35.0301 61.4206 34.8387 61.1706 34.8387 60.8854V55.7864L29.7228 54.4167C29.4468 54.3424 29.2554 54.0924 29.2554 53.8073V45.1471C29.2554 44.9518 29.3465 44.7669 29.5028 44.6471C29.6577 44.526 29.8634 44.4909 30.0496 44.5377L34.8387 45.8216V41.0599C34.8387 40.8646 34.9299 40.6797 35.0861 40.5599C35.2424 40.4388 35.4455 40.4023 35.633 40.4505L44.2931 42.7721C44.5692 42.8463 44.7606 43.0963 44.7606 43.3815V48.4792L49.8765 49.8489C50.1525 49.9232 50.3439 50.1732 50.3439 50.4583V59.1198C50.3439 59.3151 50.2528 59.5 50.0965 59.6198C49.9416 59.7409 49.7358 59.776 49.5496 59.7292L44.7606 58.444V63.2057C44.7606 63.401 44.6694 63.5859 44.5132 63.7057C44.4012 63.7917 44.2658 63.8359 44.1291 63.8359ZM36.0991 60.4023L43.4989 62.3854V57.6237C43.4989 57.4284 43.59 57.2435 43.7463 57.1237C43.9012 57.0026 44.1043 56.9674 44.2931 57.0143L49.0822 58.2995V50.9427L43.9663 49.5729C43.6903 49.4987 43.4989 49.2487 43.4989 48.9635V43.8659L36.0991 41.8815V46.6432C36.0991 46.8385 36.008 47.0234 35.8517 47.1432C35.6968 47.2643 35.4937 47.3008 35.3049 47.2526L30.5158 45.9687V53.3242L35.6317 54.694C35.9077 54.7682 36.0991 55.0182 36.0991 55.3034V60.4023Z" fill="#BA850B"/>
<path d="M61.0263 59.0585C61.7093 58.4609 61.6299 57.2529 60.8491 56.3605C60.0682 55.468 58.8815 55.229 58.1985 55.8266C57.5155 56.4242 57.5948 57.6322 58.3757 58.5246C59.1566 59.4171 60.3433 59.6561 61.0263 59.0585Z" fill="white"/>
<path d="M60.0927 60.017C59.8818 60.017 59.6644 59.9883 59.4482 59.9311C58.1318 59.5782 57.1031 58.2644 57.1031 56.9402C57.1031 56.2514 57.3779 55.6602 57.8779 55.2761C58.387 54.8868 59.0797 54.7709 59.775 54.9558C61.0901 55.3087 62.1201 56.6225 62.1201 57.9467C62.1201 58.6355 61.8453 59.2253 61.3466 59.6081C60.9951 59.8777 60.5589 60.017 60.0927 60.017ZM59.1214 56.1277C58.9352 56.1277 58.7711 56.1772 58.6422 56.2748C58.4612 56.4141 58.361 56.6485 58.361 56.9389C58.361 57.6941 59.0068 58.5066 59.7711 58.711C60.0927 58.7982 60.3766 58.7605 60.5758 58.6081C60.7594 58.4675 60.8558 58.2384 60.8558 57.9454C60.8558 57.1902 60.2099 56.3777 59.4443 56.1732C59.3336 56.142 59.2242 56.1277 59.1214 56.1277Z" fill="#1A1A1A"/>
<path d="M32.4712 85.664C32.3097 85.664 32.1483 85.6028 32.0259 85.4791C31.7798 85.233 31.7798 84.8346 32.0259 84.5885L35.5467 81.0664C35.7928 80.8203 36.1912 80.8203 36.4373 81.0664C36.6834 81.3125 36.6834 81.7109 36.4373 81.957L32.9165 85.4791C32.7941 85.6028 32.6327 85.664 32.4712 85.664Z" fill="#1A1A1A"/>
</svg>
