<svg width="388" height="443" viewBox="0 0 388 443" fill="none" xmlns="http://www.w3.org/2000/svg">
<path d="M131.681 144C171.248 144 203.322 111.764 203.322 72C203.322 32.2355 171.248 0 131.681 0C92.1149 0 60.0401 32.2355 60.0401 72C60.0401 111.764 92.1149 144 131.681 144Z" fill="url(#paint0_linear)"/>
<path d="M140.38 364.649H302.106V443H140.38V364.649Z" fill="#1A1A1A"/>
<path d="M82.8837 293.685C82.2653 299.644 82.2853 303.879 86.0903 305.127C110.825 313.226 116.57 226.611 135.954 227.563C165.956 229.042 159.278 321.185 145.016 341.333C129.152 363.741 97.994 373.299 71.9274 366.808C32.3263 356.95 18.5774 308.069 26.8707 276.399C27.3993 276.589 27.9279 276.785 28.4615 276.975C45.4369 283.105 63.4945 287.49 80.6844 292.978C81.4175 293.219 82.1506 293.449 82.8837 293.685Z" fill="white"/>
<path d="M88.531 369.904C111.092 369.904 133.513 359.439 145.875 341.973C157.021 326.23 163.943 264.87 151.321 238.728C147.556 230.924 142.395 226.809 135.986 226.494C126.377 225.992 120.173 244.266 113.705 263.592C106.364 285.504 98.7641 308.152 86.4066 304.103C83.5092 303.156 83.2997 299.888 83.9331 293.798C83.9879 293.292 83.6738 292.811 83.19 292.656L80.9908 291.954C74.1537 289.774 67.0674 287.729 60.2104 285.754C49.7877 282.752 39.011 279.645 28.8027 275.961L27.2119 275.39C26.9277 275.289 26.6135 275.309 26.3492 275.45C26.0849 275.59 25.8854 275.836 25.8106 276.131C20.5594 296.184 24.2148 321.078 35.1212 339.552C43.8184 354.287 56.4502 364.075 71.6503 367.859C77.1858 369.243 82.8659 369.904 88.531 369.904ZM135.632 228.644C135.717 228.644 135.802 228.644 135.892 228.649C141.457 228.924 146 232.628 149.396 239.67C161.759 265.281 155.026 325.328 144.13 340.72C129.144 361.885 98.8839 372.425 72.174 365.774C57.5424 362.131 45.3693 352.688 36.9713 338.459C26.5536 320.808 22.9232 297.151 27.6059 277.83L28.0847 278.001C38.3527 281.71 49.1693 284.822 59.6219 287.839C66.4639 289.809 73.5354 291.849 80.3425 294.019L81.7139 294.46C81.1803 300.048 81.2751 304.699 85.7433 306.163C100.175 310.879 108.075 287.188 115.745 264.283C121.614 246.757 127.678 228.644 135.632 228.644Z" fill="#1A1A1A"/>
<path d="M127.685 272.672C127.685 318.961 127.685 371.867 127.685 371.867H310.735C310.735 371.867 311.862 298.438 309.389 252.023C310.311 253.19 311.234 254.413 312.171 255.746C316.046 261.29 325.177 278.861 321.173 285.833C319.532 288.705 317.188 289.857 314.346 289.707C314.974 301.219 314.715 312.877 315.084 324.244C315.453 335.385 315.787 346.547 316.081 357.688C362.046 358.17 392.187 315.238 385.544 268.837C378.423 219.009 339.006 181.079 291.805 169.271C280.405 166.414 263.768 164.75 249.067 163.783C233.204 162.726 219.574 162.485 217.156 162.45C205.626 162.284 195.572 163.061 186.83 164.675C122.704 176.443 127.685 231.945 127.685 272.672Z" fill="white"/>
<path d="M127.701 372.946H310.751C311.34 372.946 311.819 372.475 311.824 371.884C311.833 371.167 312.871 301.497 310.652 255.447C310.871 255.748 311.09 256.054 311.31 256.37C315.299 262.083 323.827 279.078 320.256 285.293C318.895 287.674 317 288.751 314.417 288.631C314.152 288.596 313.818 288.726 313.599 288.947C313.384 289.162 313.27 289.463 313.29 289.769C313.654 296.475 313.719 303.336 313.783 309.972C313.828 314.678 313.873 319.549 314.028 324.281C314.397 335.422 314.731 346.579 315.025 357.715C315.04 358.296 315.509 358.757 316.087 358.768C336.404 358.978 354.92 350.693 368.216 335.437C383.481 317.921 390.188 293.588 386.627 268.684C379.82 221.041 341.825 180.665 292.085 168.225C282.386 165.795 267.944 163.94 249.158 162.707C233.334 161.65 219.755 161.409 217.197 161.369C205.896 161.209 195.628 161.961 186.662 163.609C125.876 174.771 126.265 224.489 126.579 264.439C126.604 267.235 126.624 269.987 126.624 272.673V371.869C126.624 372.46 127.103 372.946 127.701 372.946ZM309.694 370.786H128.774V272.668C128.774 269.977 128.754 267.22 128.729 264.414C128.419 225.271 128.036 176.56 187.046 165.724C195.873 164.096 205.986 163.354 217.162 163.519C219.715 163.559 233.24 163.8 249.018 164.852C267.679 166.075 281.992 167.91 291.567 170.31C340.468 182.544 377.82 222.198 384.503 268.984C387.979 293.262 381.456 316.963 366.605 334.009C353.953 348.523 336.424 356.527 317.15 356.607C316.86 345.812 316.536 335.001 316.182 324.206C316.027 319.499 315.983 314.643 315.938 309.947C315.878 303.657 315.818 297.166 315.499 290.776C318.336 290.581 320.561 289.102 322.127 286.366C326.525 278.708 317.03 260.785 313.075 255.122C312.123 253.763 311.185 252.53 310.253 251.343C309.963 250.972 309.465 250.841 309.031 251.002C308.592 251.167 308.313 251.598 308.338 252.069C310.617 294.901 309.814 361.574 309.694 370.786Z" fill="#1A1A1A"/>
<path d="M302.733 284.592C304.084 298.871 303.391 313.711 303.85 327.815C304.164 337.447 304.463 347.085 304.727 356.723C303.959 356.603 303.201 356.508 302.423 356.362C284.116 352.909 246.57 326.346 228.203 298.791C242.775 284.146 257.347 269.501 271.919 254.857C282.017 265.998 293.282 277.966 302.733 284.592Z" fill="white"/>
<path d="M304.74 357.783C304.999 357.783 305.254 357.687 305.448 357.517C305.687 357.306 305.822 356.996 305.812 356.675C305.548 347.037 305.249 337.399 304.939 327.761C304.775 322.694 304.755 317.417 304.74 312.315C304.71 303.143 304.68 293.656 303.812 284.479C303.782 284.163 303.613 283.877 303.359 283.692C294.108 277.207 283.171 265.644 272.729 254.112C272.529 253.896 272.25 253.766 271.961 253.761C271.652 253.746 271.382 253.871 271.178 254.077L227.463 298.011C227.099 298.377 227.044 298.948 227.328 299.374C245.859 327.185 283.466 353.858 302.241 357.402C302.755 357.502 303.269 357.577 303.782 357.652L304.575 357.773C304.63 357.778 304.685 357.783 304.74 357.783ZM301.723 285.176C302.536 294.107 302.566 303.364 302.596 312.32C302.61 317.442 302.625 322.735 302.795 327.832C303.094 337.033 303.378 346.24 303.633 355.447C303.304 355.397 302.97 355.342 302.64 355.282C284.543 351.869 247.55 325.301 229.607 298.908L271.901 256.402C282.044 267.579 292.617 278.68 301.723 285.176Z" fill="#1A1A1A"/>
<path d="M175.733 79.3545C160.817 76.8185 151.357 61.1564 157.456 46.8675C165.305 28.4738 185.602 31.06 200.972 37.0592C215.698 35.6609 232.798 39.6403 241.69 51.293C254.023 67.4613 256.097 86.5466 255.294 105.998C268.37 113.716 283.206 128.837 269.931 143.677C257.334 157.761 230.15 159.53 212.756 159.46C195.451 159.384 173.858 154.678 168.517 135.367C164.946 122.467 173.988 109.266 186.475 108.544C185.004 98.4599 181.184 88.391 179.658 78.272C178.665 79.134 177.334 79.6252 175.733 79.3545Z" fill="#1A1A1A"/>
<path d="M229.324 93.9271C227.793 94.2228 226.262 94.5236 224.731 94.8243C223.07 95.145 221.714 96.393 221.864 98.2223C221.903 98.7084 222.123 99.1846 222.407 99.6306C221.948 100.608 221.913 101.731 222.617 102.723C223.529 104.011 225.698 104.572 226.985 103.455C228.456 102.182 232.68 96.2025 232.176 94.8142C231.743 93.6164 230.655 93.6665 229.324 93.9271Z" fill="#1A1A1A"/>
<path d="M165.313 69.6671C169.646 71.1306 201.892 70.3337 210.285 70.0932C217.222 73.2607 222.772 74.9697 227.809 75.1903V74.3583C227.719 57.6536 214.693 44.9585 197.872 44.2368C187.709 43.7907 178.024 47.0184 171.865 53.9899C168.34 57.9694 165.961 63.1968 165.313 69.6671Z" fill="#1A1A1A"/>
<path d="M165.106 74.4332C166.248 53.3933 180.526 43.4747 197.865 44.2365C214.063 44.9432 226.859 57.8438 227.856 73.7466C228.136 73.7265 228.375 73.6714 228.649 73.6914C241.69 74.2678 248.477 94.4156 224.869 95.3629C224.186 96.4003 223.523 97.4378 222.73 98.3851L239.995 163.269C242.892 163.399 245.954 163.585 249.086 163.79C247.056 171.133 242.757 177.543 236.913 181.958C231.691 185.888 225.253 188.223 218.062 188.223C213.619 188.223 209.225 187.186 205.186 185.351C196.534 181.422 189.472 173.804 186.849 164.682C190.225 164.071 193.786 163.57 197.566 163.219L184.45 111.516C173 106.389 163.979 95.1925 165.106 74.4332Z" fill="white"/>
<path d="M218.059 189.286C225.18 189.286 231.923 187.046 237.553 182.806C243.572 178.265 248.03 171.609 250.115 164.066C250.205 163.75 250.145 163.415 249.955 163.154C249.771 162.888 249.472 162.723 249.147 162.703C246.285 162.518 243.487 162.347 240.819 162.217L223.899 98.631C224.462 97.9093 224.971 97.1525 225.455 96.4107C240.4 95.6189 241.587 87.5247 241.592 85.0388C241.602 79.3453 236.486 73.0303 228.836 72.6193C227.305 56.451 214.184 43.8661 197.902 43.1544C178.413 42.3525 165.103 54.5565 164.026 74.3735C162.769 97.5535 173.82 107.778 183.534 112.278L196.211 162.257C192.995 162.588 189.788 163.044 186.656 163.61C186.357 163.665 186.093 163.846 185.933 164.101C185.774 164.357 185.729 164.678 185.813 164.968C188.452 174.155 195.528 182.139 204.739 186.324C209.078 188.284 213.556 189.286 218.059 189.286ZM247.666 164.768C245.577 171.328 241.562 177.082 236.266 181.082C231.01 185.036 224.712 187.131 218.059 187.131C213.925 187.131 209.626 186.174 205.627 184.354C197.368 180.605 190.95 173.619 188.237 165.52C191.334 164.988 194.501 164.577 197.662 164.282C197.977 164.252 198.261 164.086 198.44 163.831C198.625 163.575 198.68 163.249 198.605 162.944L185.489 111.241C185.41 110.92 185.185 110.655 184.886 110.519C175.68 106.409 164.963 96.8217 166.175 74.4888C167.197 55.6841 179.281 44.4224 197.817 45.3095C213.356 45.9861 225.809 58.2402 226.786 73.8121C226.806 74.0978 226.936 74.3685 227.15 74.5589C227.365 74.7494 227.649 74.8496 227.933 74.8245L228.257 74.7895C228.367 74.7794 228.472 74.7594 228.581 74.7694C235.015 75.0501 239.468 80.4078 239.458 85.0388C239.448 90.4616 233.977 93.9198 224.831 94.2857C224.487 94.3007 224.168 94.4812 223.978 94.7719L223.809 95.0275C223.186 95.9747 222.597 96.8718 221.909 97.6938C221.684 97.9644 221.605 98.3303 221.694 98.6661L238.959 163.545C239.079 164.001 239.483 164.322 239.952 164.342C242.415 164.442 245.008 164.592 247.666 164.768Z" fill="#1A1A1A"/>
<path d="M171.865 53.9858C181.863 61.4034 203.312 61.7542 209.975 61.3282C216.871 72.4696 223.07 73.8579 227.813 74.3591C227.723 57.6545 214.697 44.9593 197.876 44.2376C187.708 43.7866 178.023 47.0142 171.865 53.9858Z" fill="#1A1A1A"/>
<path d="M181.346 91.9717C181.899 91.9717 182.373 91.5406 182.418 90.9743C182.463 90.3779 182.019 89.8617 181.426 89.8166L174.833 89.3104C175.97 82.8651 180.817 75.0015 180.867 74.9213C181.181 74.4151 181.027 73.7485 180.523 73.4328C180.019 73.117 179.356 73.2674 179.042 73.7786C178.808 74.1545 173.302 83.0756 172.529 90.1874C172.499 90.4781 172.584 90.7688 172.768 90.9944C172.953 91.2199 173.222 91.3602 173.512 91.3803L181.251 91.9767C181.291 91.9717 181.316 91.9717 181.346 91.9717Z" fill="#1A1A1A"/>
<path d="M271.926 254.833C263.992 242.905 230.585 203.963 197.626 197.247C164.668 190.531 129.924 202.62 129.48 208.884C129.036 215.149 152.749 211.631 152.749 211.631C152.749 211.631 147.742 221.865 161.107 226.792C161.107 226.792 164.673 234.851 170.462 235.297C170.462 235.297 175.399 244.053 184.271 242.013C184.271 242.013 214.706 282.564 228.216 298.773C252.801 276.63 271.926 254.833 271.926 254.833Z" fill="white"/>
<path d="M228.185 299.835C228.45 299.835 228.704 299.739 228.903 299.559C253.26 277.637 272.519 255.75 272.709 255.535C273.033 255.164 273.068 254.628 272.798 254.217C266.27 244.403 232.404 203.216 197.82 196.174C168.791 190.265 139.408 198.61 131.115 204.95C129.37 206.283 128.477 207.541 128.387 208.794C128.317 209.812 128.686 210.734 129.464 211.46C133.07 214.828 146.17 213.55 151.137 212.924C150.699 214.593 150.374 217.234 151.482 220.011C152.803 223.319 155.765 225.88 160.293 227.634C161.126 229.333 164.497 235.497 169.798 236.299C171.025 238.144 175.912 244.574 183.787 243.191C187.457 248.072 214.83 284.423 227.357 299.449C227.542 299.674 227.811 299.81 228.101 299.835C228.135 299.835 228.16 299.835 228.185 299.835ZM270.544 254.728C267.263 258.407 249.873 277.687 228.3 297.198C214.626 280.664 185.398 241.742 185.103 241.341C184.849 241 184.415 240.845 184.006 240.94C176.017 242.77 171.419 234.826 171.369 234.746C171.195 234.43 170.876 234.229 170.517 234.199C165.445 233.803 162.094 226.406 162.064 226.331C161.944 226.065 161.725 225.855 161.45 225.754C157.281 224.221 154.598 222.015 153.476 219.199C152.025 215.565 153.671 212.122 153.686 212.087C153.86 211.726 153.825 211.3 153.591 210.974C153.352 210.649 152.958 210.493 152.564 210.543C145.582 211.581 133.534 212.317 130.92 209.872C130.616 209.591 130.497 209.31 130.526 208.944C130.541 208.734 130.721 207.952 132.412 206.664C140.206 200.71 169.4 192.581 197.391 198.284C230.514 205.035 263.104 243.967 270.544 254.728Z" fill="#1A1A1A"/>
<path d="M171.108 236.532C171.173 236.532 171.238 236.527 171.298 236.516C171.881 236.411 172.27 235.85 172.165 235.264C170.884 228.087 178.908 223.947 182.104 222.96C182.673 222.784 182.992 222.183 182.812 221.611C182.638 221.04 182.044 220.709 181.471 220.9C176.868 222.323 168.55 227.24 170.051 235.644C170.146 236.166 170.599 236.532 171.108 236.532Z" fill="#1A1A1A"/>
<path d="M161.102 227.864C161.151 227.864 161.201 227.859 161.251 227.854C161.84 227.773 162.249 227.227 162.169 226.636C161.555 222.145 167.221 213.76 176.307 211.379C176.88 211.229 177.224 210.638 177.075 210.061C176.925 209.485 176.347 209.129 175.763 209.289C165.236 212.051 159.326 221.734 160.039 226.926C160.114 227.473 160.578 227.864 161.102 227.864Z" fill="#1A1A1A"/>
<path d="M152.723 212.696C153.152 212.696 153.561 212.435 153.725 212.004C156.214 205.559 167.953 200.858 168.073 200.813C168.626 200.592 168.895 199.966 168.681 199.414C168.467 198.858 167.843 198.587 167.29 198.803C166.771 199.008 154.553 203.9 151.726 211.227C151.511 211.784 151.785 212.41 152.339 212.626C152.464 212.676 152.593 212.696 152.723 212.696Z" fill="#1A1A1A"/>
<path d="M184.25 243.082C184.439 243.082 184.634 243.031 184.808 242.921C184.923 242.851 187.626 241.172 188.07 238.295C188.344 236.526 187.725 234.757 186.229 233.028C185.84 232.582 185.162 232.527 184.713 232.923C184.264 233.314 184.22 233.995 184.609 234.446C185.666 235.669 186.12 236.852 185.945 237.965C185.656 239.834 183.711 241.067 183.691 241.082C183.182 241.388 183.023 242.054 183.332 242.565C183.536 242.896 183.89 243.082 184.25 243.082Z" fill="#1A1A1A"/>
<path d="M78.3348 290.861H162.813C167.58 290.861 170.877 286.07 169.196 281.584L128.114 172.12C127.112 169.448 124.568 167.684 121.731 167.684H37.2526C32.4851 167.684 29.1888 172.475 30.8694 176.961L71.9515 286.426C72.9539 289.092 75.4972 290.861 78.3348 290.861Z" fill="#1A1A1A"/>
<path d="M86.7128 225.281C81.8764 225.281 77.9556 221.341 77.9556 216.48C77.9556 211.62 81.8764 207.679 86.7128 207.679C91.5492 207.679 95.4698 211.62 95.4698 216.48C95.4698 221.341 91.5492 225.281 86.7128 225.281Z" fill="white"/>
<path d="M86.696 226.36C92.1167 226.36 96.5251 221.929 96.5251 216.481C96.5251 211.033 92.1167 206.602 86.696 206.602C81.2752 206.602 76.8667 211.033 76.8667 216.481C76.8667 221.929 81.2752 226.36 86.696 226.36ZM86.696 208.763C90.9298 208.763 94.3758 212.226 94.3758 216.481C94.3758 220.736 90.9298 224.2 86.696 224.2C82.4621 224.2 79.0161 220.736 79.0161 216.481C79.0161 212.226 82.4621 208.763 86.696 208.763Z" fill="#1A1A1A"/>
<path d="M81.5975 293.424C94.7629 260.331 110.242 249.515 104.238 237.893C104.238 237.893 106.542 227.723 100.129 227.673C100.129 227.673 100.932 214.457 87.0981 223.388C73.2644 232.319 65.2005 239.882 65.2005 239.882C65.2005 239.882 89.5117 213.715 83.7917 208.638C78.0717 203.561 58.6776 231.127 55.5658 232.75C44.0061 238.79 51.7059 211.084 48.0605 206.603C45.557 203.531 41.777 204.017 37.5182 224.12C33.6134 242.564 28.3572 276.72 28.3572 276.72C28.3572 276.72 60.7771 287.114 81.5975 293.424Z" fill="white"/>
<path d="M81.6026 294.497C82.0314 294.497 82.4354 294.236 82.6 293.82C88.0158 280.213 93.7557 270.505 98.3686 262.706C104.892 251.68 108.871 244.949 105.375 237.737C105.65 236.288 106.393 231.231 104.208 228.46C103.45 227.497 102.443 226.901 101.206 226.686C101.121 224.941 100.613 221.513 97.9897 219.965C95.3616 218.416 91.5116 219.258 86.5247 222.481C81.7073 225.593 77.5632 228.555 74.217 231.091C79.7624 224.21 85.9662 215.389 85.7368 210.607C85.6819 209.435 85.268 208.497 84.51 207.826C83.7669 207.164 82.8294 206.858 81.7672 206.944C76.8052 207.289 69.0754 215.88 60.9218 225.418C58.4034 228.365 55.8002 231.412 55.0722 231.793C53.591 232.565 52.479 232.73 51.7758 232.279C49.5666 230.87 49.8508 223.834 50.0802 218.185C50.3046 212.662 50.4942 207.891 48.8933 205.921C47.4172 204.102 46.0059 203.992 45.0733 204.217C43.0636 204.708 39.9917 207.279 36.4709 223.899C32.606 242.162 27.3499 276.218 27.3 276.559C27.2202 277.085 27.5294 277.592 28.0331 277.752C28.3572 277.857 60.7074 288.222 81.2934 294.457C81.3931 294.482 81.4978 294.497 81.6026 294.497ZM95.0224 221.363C95.7505 221.363 96.3739 221.513 96.8975 221.819C99.2563 223.212 99.0618 227.558 99.0618 227.603C99.0419 227.898 99.1466 228.189 99.3511 228.405C99.5506 228.62 99.8348 228.745 100.129 228.75C101.191 228.76 101.974 229.101 102.523 229.798C104.084 231.773 103.54 236.138 103.201 237.652C103.146 237.902 103.176 238.163 103.296 238.388C106.537 244.668 102.767 251.043 96.5235 261.609C91.9754 269.297 86.3451 278.819 80.9742 292.106C62.3082 286.433 34.8053 277.647 29.564 275.973C30.4268 270.414 35.0746 240.869 38.5754 224.345C41.8618 208.808 44.5697 206.558 45.582 206.312C46.0458 206.197 46.6094 206.523 47.2327 207.284C48.3149 208.613 48.1104 213.65 47.9358 218.09C47.6466 225.252 47.3723 232.018 50.6238 234.093C52.0251 234.99 53.8553 234.855 56.0645 233.702C57.1118 233.156 59.0118 230.966 62.5525 226.821C68.118 220.305 77.4385 209.404 81.9118 209.094C82.4105 209.059 82.7795 209.169 83.0837 209.44C83.3979 209.715 83.5625 210.131 83.5874 210.708C83.8767 216.792 69.8484 233.296 64.4176 239.14C64.0187 239.566 64.0337 240.228 64.4426 240.639C64.8515 241.05 65.5148 241.06 65.9337 240.664C66.0135 240.589 74.0973 233.056 87.6767 224.29C90.6888 222.35 93.1772 221.363 95.0224 221.363Z" fill="#1A1A1A"/>
<path d="M74.2284 250.988C74.4778 250.988 74.7221 250.902 74.9266 250.727L100.824 228.48C101.272 228.094 101.327 227.412 100.943 226.956C100.559 226.505 99.881 226.45 99.4272 226.836L73.5303 249.083C73.0815 249.469 73.0266 250.151 73.4106 250.607C73.625 250.862 73.9292 250.988 74.2284 250.988Z" fill="#1A1A1A"/>
<path d="M83.2826 262.01C83.5319 262.01 83.7762 261.924 83.9807 261.749C86.539 259.549 104.297 239.456 105.05 238.604C105.444 238.158 105.405 237.476 104.961 237.08C104.517 236.684 103.839 236.719 103.445 237.17C97.0863 244.368 84.5442 258.426 82.5844 260.11C82.1355 260.496 82.0807 261.178 82.4647 261.634C82.6791 261.884 82.9833 262.01 83.2826 262.01Z" fill="#1A1A1A"/>
<path d="M255.42 371.779C256.013 371.779 256.492 371.298 256.492 370.701V333.107C256.492 332.511 256.013 332.03 255.42 332.03C254.827 332.03 254.348 332.511 254.348 333.107V370.701C254.348 371.293 254.827 371.779 255.42 371.779Z" fill="#1A1A1A"/>
<path d="M256.492 164.3V234.667C256.492 235.264 256.013 235.745 255.42 235.745C254.827 235.745 254.348 235.264 254.348 234.667V163.879C254.348 163.849 254.353 163.819 254.358 163.789C255.076 163.904 255.794 164.064 256.492 164.3Z" fill="#1A1A1A"/>
<path d="M181.153 195.662C181.746 195.662 182.225 195.181 182.225 194.585V166.012C182.225 165.415 181.746 164.934 181.153 164.934C180.56 164.934 180.081 165.415 180.081 166.012V194.585C180.076 195.176 180.56 195.662 181.153 195.662Z" fill="#1A1A1A"/>
<path d="M181.153 372.215C181.746 372.215 182.225 371.734 182.225 371.138V242.603C182.225 242.006 181.746 241.525 181.153 241.525C180.56 241.525 180.081 242.006 180.081 242.603V371.138C180.076 371.734 180.56 372.215 181.153 372.215Z" fill="#1A1A1A"/>
<path d="M309.421 253.109C309.646 253.109 309.875 253.039 310.07 252.893C310.544 252.533 310.638 251.856 310.279 251.38C306.175 245.917 299.348 241.882 299.058 241.712C298.545 241.406 297.887 241.587 297.587 242.098C297.288 242.614 297.463 243.276 297.971 243.576C298.036 243.616 304.719 247.571 308.559 252.683C308.778 252.964 309.097 253.109 309.421 253.109Z" fill="#1A1A1A"/>
<path d="M212.79 420.929V442.992H214.939V420.929C214.939 420.333 214.461 419.852 213.867 419.852C213.269 419.852 212.79 420.338 212.79 420.929Z" fill="white"/>
<path d="M39.0917 108.298H124.079C124.672 108.298 125.151 107.817 125.151 107.221V85.5491C125.151 84.9526 124.672 84.4715 124.079 84.4715H39.0917C38.4982 84.4715 38.0195 84.9526 38.0195 85.5491V107.221C38.0195 107.817 38.4982 108.298 39.0917 108.298ZM123.006 106.138H40.1639V86.6266H123.006V106.138Z" fill="#1A1A1A"/>
<path d="M39.095 64.331H108.862C109.456 64.331 109.934 63.8499 109.934 63.2534C109.934 62.657 109.456 62.1758 108.862 62.1758H39.095C38.5016 62.1758 38.0228 62.657 38.0228 63.2534C38.0228 63.8449 38.5016 64.331 39.095 64.331Z" fill="#1A1A1A"/>
<path d="M124.103 70.0538C127.843 70.0538 130.885 66.9965 130.885 63.2376C130.885 59.4787 127.843 56.4215 124.103 56.4215C120.363 56.4215 117.321 59.4787 117.321 63.2376C117.321 66.9965 120.363 70.0538 124.103 70.0538ZM124.103 58.5816C126.656 58.5816 128.736 60.6716 128.736 63.2376C128.736 65.8037 126.656 67.8937 124.103 67.8937C121.549 67.8937 119.47 65.8037 119.47 63.2376C119.47 60.6716 121.549 58.5816 124.103 58.5816Z" fill="#1A1A1A"/>
<path d="M9.28554 138.213C9.56979 138.213 9.84408 138.098 10.0436 137.898L18.257 129.643C18.6759 129.222 18.6759 128.54 18.257 128.114L10.0436 119.86C9.84408 119.659 9.56979 119.544 9.28554 119.544C9.00128 119.544 8.72705 119.659 8.52758 119.86L0.314081 128.114C-0.10482 128.535 -0.10482 129.217 0.314081 129.643L8.52758 137.898C8.72705 138.103 9.00128 138.213 9.28554 138.213ZM15.983 128.881L9.28554 135.612L2.59313 128.881L9.28554 122.15L15.983 128.881Z" fill="#1A1A1A"/>
<path d="M9.28632 162.496C9.47084 162.496 9.6554 162.451 9.82495 162.351C10.3386 162.05 10.5132 161.394 10.2139 160.872L3.23718 148.764C2.93797 148.248 2.27972 148.072 1.76606 148.373C1.25241 148.674 1.07786 149.33 1.37707 149.851L8.35377 161.96C8.55824 162.301 8.91729 162.496 9.28632 162.496Z" fill="#1A1A1A"/>
<path d="M379.08 375.389C379.355 375.389 379.629 375.284 379.838 375.074C380.257 374.653 380.257 373.971 379.838 373.545L369.057 362.709C368.638 362.288 367.96 362.288 367.536 362.709C367.117 363.13 367.117 363.812 367.536 364.238L378.317 375.074C378.527 375.284 378.801 375.389 379.08 375.389Z" fill="#1A1A1A"/>
<path d="M367 379.212C367.274 379.212 367.549 379.106 367.758 378.896C368.177 378.475 368.177 377.793 367.758 377.367L356.977 366.531C356.558 366.11 355.879 366.11 355.456 366.531C355.037 366.952 355.037 367.634 355.456 368.06L366.242 378.896C366.452 379.106 366.726 379.212 367 379.212Z" fill="#1A1A1A"/>
<path d="M372.231 39.4879C372.505 39.4879 372.779 39.3827 372.989 39.1722L385.601 26.4972C386.02 26.0762 386.02 25.3945 385.601 24.9685C385.182 24.5475 384.504 24.5475 384.08 24.9685L371.468 37.6435C371.049 38.0645 371.049 38.7462 371.468 39.1722C371.682 39.3827 371.956 39.4879 372.231 39.4879Z" fill="#1A1A1A"/>
<path d="M58.3324 250.796C58.6565 250.796 58.9806 250.646 59.1901 250.365L61.9676 246.647C62.3266 246.171 62.2269 245.494 61.7532 245.138C61.2795 244.777 60.6063 244.873 60.2522 245.354L57.4747 249.072C57.1157 249.548 57.2154 250.225 57.6891 250.581C57.8786 250.731 58.108 250.796 58.3324 250.796Z" fill="#1A1A1A"/>
<path d="M238.119 215.583C242.163 218.836 259.139 234.679 273.421 252.832C290.511 271.707 309.432 294.937 318.747 288.582L360.922 341.267C346.16 354.258 325.884 360.768 302.4 356.332C284.093 352.879 254.895 338.671 225.642 300.756C213.459 285.399 198.094 264.334 198.094 264.334L238.119 215.583Z" fill="white"/>
<path d="M316.788 358.783C333.614 358.783 349.178 353.059 361.65 342.078C362.099 341.687 362.139 341.001 361.75 340.555C361.361 340.104 360.678 340.063 360.234 340.454C344.735 354.097 324.264 359.354 302.62 355.27C290.816 353.044 259.778 343.211 226.51 300.089C215.689 286.446 202.209 268.098 199.476 264.364L238.279 217.097C243.156 221.272 259.11 236.352 272.594 253.498C274.509 255.613 276.394 257.723 278.284 259.843C294.746 278.262 310.295 295.648 319.361 289.473C319.85 289.138 319.98 288.466 319.651 287.975C319.317 287.484 318.648 287.353 318.16 287.684C310.634 292.816 294.297 274.533 279.885 258.4C277.99 256.275 276.1 254.165 274.235 252.1C259.922 233.902 243.017 218.119 238.808 214.731C238.354 214.365 237.681 214.43 237.307 214.886L197.282 263.642C196.968 264.023 196.953 264.569 197.242 264.97C197.397 265.181 212.756 286.226 224.815 301.427C258.521 345.12 290.173 355.119 302.216 357.395C307.153 358.327 312.026 358.783 316.788 358.783Z" fill="#1A1A1A"/>
<path d="M321.08 157.351C321.355 157.351 321.629 157.246 321.838 157.035C322.257 156.614 322.257 155.932 321.838 155.506L313.48 147.107C313.061 146.686 312.383 146.686 311.959 147.107C311.54 147.528 311.54 148.209 311.959 148.635L320.317 157.035C320.532 157.246 320.806 157.351 321.08 157.351Z" fill="white"/>
<path d="M261.862 238.634C262.456 238.634 262.935 238.152 262.935 237.556V166.237C262.935 165.64 262.456 165.159 261.862 165.159C261.269 165.159 260.79 165.64 260.79 166.237V237.556C260.79 238.147 261.269 238.634 261.862 238.634Z" fill="#1A1A1A"/>
<path d="M261.342 336.057C261.601 336.303 261.851 336.558 262.085 336.829C262.2 336.959 262.309 337.09 262.419 337.225C262.434 337.245 262.514 337.35 262.564 337.41C262.628 337.501 262.708 337.616 262.708 337.616C262.783 337.726 262.858 337.831 262.933 337.942C262.933 337.947 262.938 337.947 262.938 337.952V408.319C262.938 408.915 262.459 409.396 261.866 409.396C261.272 409.396 260.793 408.915 260.793 408.319V336.999C260.788 336.589 261.013 336.238 261.342 336.057Z" fill="#1A1A1A"/>
<path d="M176.088 241.671V373.489C176.088 374.085 175.609 374.566 175.016 374.566C174.422 374.566 173.944 374.085 173.944 373.489V240.503C174.637 240.924 175.355 241.3 176.088 241.671Z" fill="#1A1A1A"/>
<path d="M175.013 196.048C175.606 196.048 176.085 195.566 176.085 194.97V167.725C176.085 167.129 175.606 166.648 175.013 166.648C174.419 166.648 173.94 167.129 173.94 167.725V194.965C173.94 195.566 174.419 196.048 175.013 196.048Z" fill="#1A1A1A"/>
<defs>
<linearGradient id="paint0_linear" x1="157.098" y1="-4.68778" x2="100.095" y2="144.009" gradientUnits="userSpaceOnUse">
<stop offset="0.015625" stop-color="#FF7B2E"/>
<stop offset="1" stop-color="#F7B654" stop-opacity="0.51"/>
</linearGradient>
</defs>
</svg>
