<svg width="101" height="100" viewBox="0 0 101 100" fill="none" xmlns="http://www.w3.org/2000/svg">
<g clip-path="url(#clip0)">
<circle cx="50.9434" cy="50" r="50" fill="#F5F7FB"/>
<path d="M68.6721 73.5078H31.913C29.2828 73.5078 27.1422 71.3684 27.1422 68.7382V25.6432C27.1422 23.013 29.2815 20.8737 31.913 20.8737H68.6721C71.3023 20.8737 73.4416 23.013 73.4416 25.6432V68.7382C73.4403 71.3684 71.301 73.5078 68.6721 73.5078ZM31.913 22.1471C29.9846 22.1471 28.4169 23.7161 28.4169 25.6432V68.7382C28.4169 70.6653 29.9859 72.2343 31.913 72.2343H68.6721C70.5992 72.2343 72.1669 70.6653 72.1669 68.7382V25.6432C72.1669 23.7161 70.5979 22.1471 68.6721 22.1471H31.913Z" fill="#1A1A1A"/>
<path d="M52.872 39.608H36.9254C36.5739 39.608 36.2887 39.3229 36.2887 38.9713C36.2887 38.6197 36.5739 38.3346 36.9254 38.3346H52.872C53.2236 38.3346 53.5087 38.6197 53.5087 38.9713C53.5087 39.3229 53.2249 39.608 52.872 39.608Z" fill="#1A1A1A"/>
<path d="M52.872 34.2501H36.9254C36.5739 34.2501 36.2887 33.965 36.2887 33.6134C36.2887 33.2618 36.5739 32.9767 36.9254 32.9767H52.872C53.2236 32.9767 53.5087 33.2618 53.5087 33.6134C53.51 33.965 53.2249 34.2501 52.872 34.2501Z" fill="#1A1A1A"/>
<path d="M72.2557 44.5456H68.5825C65.6997 44.5456 63.3546 42.2005 63.3546 39.3164V20.6445C63.3546 20.293 63.6398 20.0078 63.9913 20.0078C64.3429 20.0078 64.628 20.293 64.628 20.6445V39.3164C64.628 41.4974 66.4015 43.2708 68.5825 43.2708H72.2557C74.4366 43.2708 76.2101 41.4961 76.2101 39.3164V19.8477C76.2101 18.1081 74.7947 16.6914 73.0538 16.6914H72.3754C70.6359 16.6914 69.2179 18.1081 69.2179 19.8477V34.3815C69.2179 34.7331 68.9327 35.0182 68.5812 35.0182C68.2296 35.0182 67.9445 34.7331 67.9445 34.3815V19.8477C67.9445 17.4049 69.9327 15.418 72.3754 15.418H73.0538C75.4965 15.418 77.4835 17.4049 77.4835 19.8477V39.3177C77.4835 42.2005 75.1385 44.5456 72.2557 44.5456Z" fill="#136D42"/>
<path d="M50.8945 86.0742C50.8112 86.0742 50.7279 86.0586 50.6497 86.0261L33.0091 78.694C32.6849 78.5586 32.5312 78.1862 32.6654 77.8607C32.8008 77.5352 33.1719 77.3841 33.4987 77.5169L50.8893 84.7461L67.5951 77.5208C67.9154 77.3815 68.2917 77.5299 68.4323 77.8529C68.5716 78.1758 68.4232 78.5495 68.1003 78.6901L51.1471 86.0222C51.0651 86.056 50.9792 86.0742 50.8945 86.0742Z" fill="#1A1A1A"/>
<path d="M15.6667 40.1562C15.504 40.1562 15.3412 40.0937 15.2162 39.97L12.0587 36.8124C11.81 36.5637 11.81 36.1601 12.0587 35.9114C12.3074 35.6627 12.711 35.6627 12.9597 35.9114L16.1172 39.0689C16.3659 39.3176 16.3659 39.7213 16.1172 39.97C15.9936 40.0937 15.8308 40.1562 15.6667 40.1562Z" fill="#1A1A1A"/>
<path d="M56.777 66.7668V60.3202H67.2327V66.7668H56.777Z" stroke="#136D42" stroke-width="2.5"/>
<path d="M67.8464 87.7435H33.2527C32.9011 87.7435 32.616 87.4584 32.616 87.1068C32.616 86.7552 32.9011 86.4701 33.2527 86.4701H67.8464C68.198 86.4701 68.4832 86.7552 68.4832 87.1068C68.4832 87.4584 68.1993 87.7435 67.8464 87.7435Z" fill="#1A1A1A"/>
<path d="M83.1366 66.0637C81.7459 66.0637 80.6157 64.9335 80.6157 63.5429C80.6157 62.1535 81.7459 61.0233 83.1366 61.0233C84.5259 61.0233 85.6561 62.1535 85.6561 63.5429C85.6561 64.9335 84.5259 66.0637 83.1366 66.0637ZM83.1366 62.2968C82.4491 62.2968 81.8892 62.8554 81.8892 63.5429C81.8892 64.2304 82.4491 64.7903 83.1366 64.7903C83.824 64.7903 84.3826 64.2317 84.3826 63.5429C84.3826 62.8554 83.824 62.2968 83.1366 62.2968Z" fill="#1A1A1A"/>
</g>
<defs>
<clipPath id="clip0">
<rect width="100" height="100" fill="white" transform="translate(0.943359)"/>
</clipPath>
</defs>
</svg>
