<svg width="24" height="24" viewBox="0 0 24 24" fill="none" xmlns="http://www.w3.org/2000/svg">
<path d="M19.71 11.2899L15.71 7.28994C15.6168 7.1967 15.5061 7.12274 15.3842 7.07228C15.2624 7.02182 15.1319 6.99585 15 6.99585C14.8681 6.99585 14.7376 7.02182 14.6158 7.07228C14.4939 7.12274 14.3832 7.1967 14.29 7.28994C14.1968 7.38318 14.1228 7.49387 14.0723 7.61569C14.0219 7.73751 13.9959 7.86808 13.9959 7.99994C13.9959 8.1318 14.0219 8.26237 14.0723 8.38419C14.1228 8.50601 14.1968 8.6167 14.29 8.70994L16.59 10.9999H5C4.73478 10.9999 4.48043 11.1053 4.29289 11.2928C4.10536 11.4804 4 11.7347 4 11.9999C4 12.2652 4.10536 12.5195 4.29289 12.707C4.48043 12.8946 4.73478 12.9999 5 12.9999H16.59L14.29 15.2899C14.1963 15.3829 14.1219 15.4935 14.0711 15.6154C14.0203 15.7372 13.9942 15.8679 13.9942 15.9999C13.9942 16.132 14.0203 16.2627 14.0711 16.3845C14.1219 16.5064 14.1963 16.617 14.29 16.7099C14.383 16.8037 14.4936 16.8781 14.6154 16.9288C14.7373 16.9796 14.868 17.0057 15 17.0057C15.132 17.0057 15.2627 16.9796 15.3846 16.9288C15.5064 16.8781 15.617 16.8037 15.71 16.7099L19.71 12.7099C19.801 12.6148 19.8724 12.5027 19.92 12.3799C20.02 12.1365 20.02 11.8634 19.92 11.6199C19.8724 11.4972 19.801 11.385 19.71 11.2899Z" fill="white"/>
</svg>
